<svg width="149" height="83" viewBox="0 0 149 83" fill="none" xmlns="http://www.w3.org/2000/svg">
<g id="Union-1 1" clip-path="url(#clip0_2_163)">
<path id="Vector" fill-rule="evenodd" clip-rule="evenodd" d="M119.957 5.52347C119.957 5.10376 119.719 4.72007 119.342 4.53236L111.923 0.838669C111.61 0.682687 111.241 0.682687 110.928 0.838669L74.3333 19.0594L37.7385 0.838666C37.4252 0.682684 37.0565 0.682684 36.7432 0.838666L29.3247 4.53236C28.9477 4.72006 28.7095 5.10376 28.7095 5.52347V42.4604C28.7095 42.8801 28.9477 43.2639 29.3247 43.4515L36.7432 47.1452C37.0565 47.3012 37.4252 47.3012 37.7385 47.1452L66.9147 32.6183L73.8357 36.0642C74.1491 36.2201 74.5176 36.2201 74.831 36.0642L81.752 32.6183L110.928 47.1452C111.241 47.3012 111.61 47.3012 111.923 47.1452L119.342 43.4515C119.719 43.2639 119.957 42.8801 119.957 42.4604V5.52347ZM59.4965 28.9245L64.4265 31.3794L37.2408 44.9152L32.3106 42.4604L59.4965 28.9245ZM57.0079 27.6856L30.9351 40.6675V6.20832L36.1281 3.62275V31.3794C36.1281 31.7634 36.3277 32.1201 36.6558 32.322C36.9839 32.5238 37.3935 32.5422 37.7385 32.3704L52.0778 25.2309L57.0079 27.6856ZM38.3536 29.5864V3.62274L73.8357 21.2894C74.1491 21.4454 74.5176 21.4454 74.831 21.2894L110.313 3.62275V29.5864L105.12 27.0008V20.3206C105.12 20.3116 105.12 20.3026 105.12 20.2936C105.12 20.2871 105.12 20.2807 105.12 20.2742V12.9109C105.12 12.5268 104.92 12.1702 104.592 11.9683C104.264 11.7664 103.855 11.748 103.51 11.9197L74.3333 26.4468L45.1568 11.9197C44.8119 11.748 44.4024 11.7664 44.0743 11.9683C43.7462 12.1702 43.5466 12.5268 43.5466 12.9109V20.2742C43.5462 20.2897 43.5462 20.3051 43.5466 20.3206V27.0008L38.3536 29.5864ZM112.538 31.3794V3.62275L117.732 6.20832V40.6675L91.6583 27.6856L96.5888 25.2309L110.928 32.3704C111.273 32.5422 111.683 32.5238 112.011 32.322C112.339 32.1201 112.538 31.7634 112.538 31.3794ZM89.1702 28.9245L116.356 42.4604L111.426 44.9152L84.2401 31.3794L89.1702 28.9245ZM102.895 19.6134L96.0912 23.0008L74.3333 33.8341L52.5764 23.0013L52.5755 23.0008L45.772 19.6134V14.7038L73.8357 28.6768C74.1491 28.8327 74.5176 28.8327 74.831 28.6768L102.895 14.7038V19.6134ZM49.5897 23.9919L45.772 22.0912V25.8927L49.5897 23.9919ZM99.077 23.9919L102.895 22.0912V25.8927L99.077 23.9919ZM0.354046 76.7379V57.3965H2.40256L9.4491 74.2447H9.6198L16.6663 57.3965H18.7148V76.7379H17.0457V61.1269H16.8939L10.3406 76.7379H8.72829L2.17495 61.1269H2.02321V76.7379H0.354046ZM32.1108 74.4428C31.5038 75.7273 30.0243 77.0686 27.5965 77.0686C24.9505 77.0686 22.8071 75.4817 22.8071 72.6862C22.8071 69.8153 25.1117 68.8991 28.4026 68.4931C28.6795 68.459 28.9426 68.4284 29.1915 68.3996C31.1411 68.1731 32.2151 68.0481 32.2151 67.0765V66.7366C32.2151 64.7535 30.9917 63.5443 28.782 63.5443C26.6765 63.5443 25.3583 64.6116 24.8272 65.8585L23.2244 65.2823C24.2107 62.9118 26.5058 62.0333 28.7346 62.0333C30.9633 62.0333 33.9033 62.9969 33.9033 66.8877V76.7379H32.2151V74.4428H32.1108ZM24.4952 72.762C24.4952 74.5186 25.9178 75.5292 27.8241 75.5292C30.5175 75.5292 32.2151 73.5554 32.2151 71.1752V69.0787C31.722 69.5605 29.5976 69.8246 28.4026 69.9665C25.9368 70.2688 24.4952 71.0054 24.4952 72.762ZM40.082 76.7379H38.3939V57.3965H40.082V69.06H40.2906L47.1189 62.2319H49.2527L43.022 68.4461L49.6324 76.7379H47.4701L41.7606 69.5511L40.082 71.1185V76.7379ZM54.1418 76.7379H52.4442V62.2319H54.1418V76.7379ZM54.578 58.5295C54.578 59.1908 53.9994 59.7386 53.3072 59.7386C52.6151 59.7386 52.0458 59.1908 52.0458 58.5295C52.0458 57.8686 52.6151 57.3207 53.3072 57.3207C53.9994 57.3207 54.578 57.8686 54.578 58.5295ZM64.2587 63.5824C61.9637 63.5824 60.2946 65.1404 60.2946 67.6714V76.7379H58.6063V62.2319H60.2469V64.5079H60.3987C61.0815 63.0253 62.5517 62.0431 64.6856 62.0431C67.6255 62.0431 69.6267 63.9033 69.6267 67.3411V76.7379H67.9384V67.4449C67.9384 65.0744 66.4967 63.5824 64.2587 63.5824ZM85.6427 77.1155C85.6427 80.7989 83.082 82.4801 79.6297 82.4801C76.6519 82.4801 74.7931 81.2333 73.9394 79.5711L75.3241 78.6647C75.9406 79.7697 77.1353 80.9687 79.6297 80.9687C82.2096 80.9687 83.945 79.7129 83.945 77.0118V73.7442H83.7933C83.2146 75.0757 81.9345 76.5867 79.3168 76.5867C75.8267 76.5867 73.3229 73.8954 73.3229 69.447C73.3229 65.0367 75.7412 62.0333 79.3453 62.0333C82.0195 62.0333 83.224 63.6955 83.8217 64.999H83.9922V62.2319H85.6427V77.1155ZM75.0206 69.4186C75.0206 72.7429 76.6234 75.0474 79.5158 75.0474C82.3231 75.0474 83.9735 72.9225 83.9735 69.4186C83.9735 66.0189 82.3707 63.5634 79.5158 63.5634C76.5949 63.5634 75.0206 66.151 75.0206 69.4186ZM100.278 62.2319H103.361V63.6955H100.278V72.9508C100.278 74.7734 101.331 75.312 102.479 75.312C102.925 75.312 103.228 75.2459 103.465 75.1795L103.825 76.7002C103.503 76.823 103.029 76.9551 102.327 76.9551C100.459 76.9551 98.5807 75.718 98.5807 73.3475V63.6955H96.409V62.2319H98.5807V58.7564H100.278V62.2319ZM118.476 73.6401C117.812 75.4631 115.849 77.0402 112.927 77.0402C108.849 77.0402 106.289 73.9707 106.289 69.5698C106.289 65.1781 108.897 62.0333 112.672 62.0333C115.83 62.0333 118.836 64.3094 118.836 69.1544V69.9855H107.986C108.062 73.3382 109.95 75.5008 112.927 75.5008C114.995 75.5008 116.313 74.4242 116.873 73.121L118.476 73.6401ZM112.672 63.5634C110.007 63.5634 108.176 65.8018 107.996 68.5024H117.11C117.11 65.7073 115.279 63.5634 112.672 63.5634ZM133.804 72.5071C133.415 75.1325 131.281 77.0402 128.246 77.0402C124.329 77.0402 121.807 73.8763 121.807 69.5511C121.807 65.1879 124.406 62.0333 128.218 62.0333C131.139 62.0333 133.396 63.8466 133.795 66.5384H132.087C131.727 64.8949 130.323 63.5634 128.246 63.5634C125.449 63.5634 123.505 65.9813 123.505 69.4944C123.505 73.0262 125.392 75.5008 128.246 75.5008C130.181 75.5008 131.708 74.3581 132.097 72.5071H133.804ZM143.15 63.5824C140.817 63.5824 139.11 65.1404 139.11 67.6714V76.7379H137.422V57.3965H139.11V64.5079H139.262C139.945 63.0062 141.377 62.0431 143.577 62.0431C146.536 62.0431 148.546 63.8843 148.546 67.3411V76.7379H146.849V67.4449C146.849 65.0553 145.408 63.5824 143.15 63.5824Z" fill="#190631"/>
</g>
<defs>
<clipPath id="clip0_2_163">
<rect width="148.667" height="82" fill="white" transform="translate(0 0.5)"/>
</clipPath>
</defs>
</svg>
