<svg width="123" height="79" viewBox="0 0 123 79" fill="none" xmlns="http://www.w3.org/2000/svg">
<g id="Vector 1" clip-path="url(#clip0_2_171)">
<path id="Vector" d="M0.666626 41.9117C0.745759 61.8552 16.7565 78.1991 36.4251 78.1991C56.1421 78.1991 72.1824 61.9211 72.1824 41.9117V36.7889C72.1824 28.5497 78.7881 21.8459 86.9072 21.8459C95.0269 21.8459 101.631 28.5497 101.631 36.7889C101.631 39.1465 103.515 41.0583 105.839 41.0583H118.459C120.784 41.0583 122.667 39.1465 122.667 36.7889C122.667 16.7794 106.626 0.5 86.9084 0.5C67.1914 0.5 51.1497 16.7794 51.1497 36.7889V41.9117C51.1497 50.1521 44.5439 56.8535 36.4263 56.8535C28.3075 56.8535 21.7017 50.1521 21.7017 41.9117C21.7017 39.554 19.8179 37.6422 17.4947 37.6422H4.87364C2.55045 37.6435 0.666626 39.554 0.666626 41.9117Z" fill="#190631"/>
</g>
<defs>
<clipPath id="clip0_2_171">
<rect width="122" height="78" fill="white" transform="translate(0.666626 0.5)"/>
</clipPath>
</defs>
</svg>
