<svg width="305" height="88" viewBox="0 0 305 88" fill="none" xmlns="http://www.w3.org/2000/svg">
<g clip-path="url(#clip0_2_195)">
<path d="M0 11.7333C0 5.25319 5.39736 0 12.0553 0H292.945C299.603 0 305 5.2532 305 11.7333V76.2667C305 82.747 299.603 88 292.945 88H12.0553C5.39735 88 0 82.747 0 76.2667V11.7333Z" fill="black"/>
<path fill-rule="evenodd" clip-rule="evenodd" d="M0 76.2667V11.7333C0 5.2532 5.39735 0 12.0553 0H292.945C299.603 0 305 5.25319 305 11.7333V76.2667C305 82.747 299.603 88 292.945 88H12.0553C5.39736 88 0 82.747 0 76.2667ZM1.8083 76.2667V11.7333C1.8083 6.22524 6.39608 1.76 12.0553 1.76H292.945C298.604 1.76 303.192 6.22524 303.192 11.7333V76.2667C303.192 81.7749 298.604 86.24 292.945 86.24H12.0553C6.39608 86.24 1.8083 81.7749 1.8083 76.2667Z" fill="white" fill-opacity="0.3"/>
<path d="M68.9234 45.7924C68.892 40.6347 71.2929 36.7476 76.1415 33.8814C73.4297 30.1001 69.3272 28.0205 63.9192 27.6197C58.7987 27.2264 53.1965 30.5237 51.1452 30.5237C48.9774 30.5237 44.0201 27.7558 40.1196 27.7558C32.0698 27.8768 23.515 34.0024 23.515 46.4654C23.515 50.1484 24.2065 53.9523 25.5896 57.8697C27.4389 63.0274 34.1055 75.6642 41.0597 75.46C44.6961 75.3767 47.268 72.9491 51.9999 72.9491C56.592 72.9491 58.9696 75.46 63.0259 75.46C70.0421 75.3615 76.0716 63.8745 77.8274 58.7013C68.4183 54.3833 68.9234 46.0571 68.9234 45.7924ZM60.7565 22.7267C64.6962 18.1741 64.3387 14.0299 64.2224 12.54C60.7414 12.7367 56.7164 14.8466 54.4242 17.4405C51.8989 20.2236 50.4149 23.6645 50.7334 27.544C54.4941 27.8239 57.9285 25.9408 60.7565 22.7267Z" fill="white"/>
<path d="M111.364 63.6814H107.373L105.186 56.9647H97.5885L95.506 63.6814H91.6206L99.1485 40.8147H103.798L111.364 63.6814ZM104.528 54.1468L102.551 48.1758C102.342 47.5658 101.95 46.1293 101.372 43.8681H101.302C101.071 44.8406 100.701 46.2771 100.191 48.1758L98.2492 54.1468H104.528Z" fill="white"/>
<path d="M130.723 55.2345C130.723 58.0387 129.949 60.2553 128.398 61.8827C127.01 63.3311 125.286 64.0545 123.228 64.0545C121.007 64.0545 119.412 63.2742 118.44 61.7143H118.37V70.3999H114.623V52.621C114.623 50.858 114.576 49.0487 114.485 47.193H117.779L117.989 49.8065H118.059C119.308 47.8373 121.204 46.8545 123.749 46.8545C125.738 46.8545 127.398 47.6226 128.727 49.1604C130.059 50.7 130.723 52.7241 130.723 55.2345ZM126.907 55.3685C126.907 53.7637 126.538 52.4406 125.796 51.3993C124.986 50.3134 123.898 49.7704 122.535 49.7704C121.61 49.7704 120.77 50.0728 120.02 50.6691C119.268 51.2704 118.776 52.0557 118.546 53.0282C118.43 53.4818 118.371 53.853 118.371 54.1451V56.8943C118.371 58.0937 118.747 59.106 119.5 59.932C120.252 60.7586 121.229 61.171 122.431 61.171C123.842 61.171 124.94 60.6383 125.726 59.5765C126.513 58.5129 126.907 57.1108 126.907 55.3685Z" fill="white"/>
<path d="M150.119 55.2345C150.119 58.0387 149.344 60.2553 147.792 61.8827C146.406 63.3311 144.682 64.0545 142.624 64.0545C140.403 64.0545 138.808 63.2742 137.838 61.7143H137.767V70.3999H134.021V52.621C134.021 50.858 133.973 49.0487 133.882 47.193H137.177L137.386 49.8065H137.456C138.704 47.8373 140.6 46.8545 143.146 46.8545C145.134 46.8545 146.794 47.6226 148.126 49.1604C149.453 50.7 150.119 52.7241 150.119 55.2345ZM146.302 55.3685C146.302 53.7637 145.932 52.4406 145.19 51.3993C144.38 50.3134 143.296 49.7704 141.93 49.7704C141.004 49.7704 140.166 50.0728 139.414 50.6691C138.662 51.2704 138.172 52.0557 137.941 53.0282C137.827 53.4818 137.767 53.853 137.767 54.1451V56.8943C137.767 58.0937 138.143 59.106 138.892 59.932C139.644 60.7568 140.621 61.171 141.827 61.171C143.238 61.171 144.336 60.6383 145.122 59.5765C145.909 58.5129 146.302 57.1108 146.302 55.3685Z" fill="white"/>
<path d="M171.804 57.2691C171.804 59.214 171.113 60.7968 169.727 62.0183C168.204 63.3535 166.083 64.02 163.357 64.02C160.84 64.02 158.823 63.546 157.296 62.5956L158.164 59.5425C159.809 60.5152 161.614 61.0028 163.58 61.0028C164.991 61.0028 166.089 60.6901 166.878 60.0682C167.664 59.4463 168.056 58.6112 168.056 57.5699C168.056 56.642 167.733 55.8602 167.084 55.2261C166.439 54.5921 165.362 54.0028 163.858 53.458C159.763 51.9649 157.718 49.7775 157.718 46.9012C157.718 45.0214 158.435 43.4801 159.871 42.2807C161.301 41.0797 163.209 40.48 165.596 40.48C167.724 40.48 169.491 40.8425 170.902 41.5659L169.966 44.5523C168.648 43.8512 167.158 43.5007 165.49 43.5007C164.173 43.5007 163.142 43.8186 162.405 44.4509C161.781 45.0162 161.468 45.7052 161.468 46.5214C161.468 47.4252 161.825 48.1726 162.542 48.7603C163.165 49.3033 164.299 49.8909 165.944 50.5249C167.956 51.3171 169.434 52.2432 170.384 53.3051C171.332 54.3636 171.804 55.6884 171.804 57.2691Z" fill="white"/>
<path d="M184.19 49.9428H180.061V57.9482C180.061 59.9844 180.788 61.0017 182.247 61.0017C182.917 61.0017 183.472 60.9448 183.911 60.8316L184.015 63.6136C183.277 63.8828 182.305 64.0189 181.101 64.0189C179.622 64.0189 178.465 63.5772 177.631 62.696C176.799 61.8125 176.382 60.3312 176.382 58.2506V49.9394H173.921V47.1901H176.382V44.1711L180.061 43.0852V47.1901H184.19V49.9428Z" fill="white"/>
<path d="M202.823 55.3015C202.823 57.836 202.082 59.9167 200.602 61.5442C199.05 63.2191 196.991 64.0545 194.424 64.0545C191.949 64.0545 189.979 63.252 188.51 61.6468C187.041 60.0423 186.307 58.0164 186.307 55.5747C186.307 53.0197 187.062 50.9268 188.579 49.2996C190.092 47.6707 192.134 46.8562 194.701 46.8562C197.175 46.8562 199.166 47.6586 200.669 49.2652C202.106 50.8237 202.823 52.8358 202.823 55.3015ZM198.936 55.4201C198.936 53.8994 198.604 52.5952 197.931 51.5076C197.146 50.1914 196.023 49.535 194.568 49.535C193.061 49.535 191.917 50.1931 191.132 51.5076C190.459 52.597 190.127 53.9217 190.127 55.4888C190.127 57.0095 190.459 58.3136 191.132 59.3993C191.942 60.7158 193.074 61.3723 194.534 61.3723C195.965 61.3723 197.087 60.7023 197.897 59.3653C198.588 58.2569 198.936 56.939 198.936 55.4201Z" fill="white"/>
<path d="M215.001 50.4147C214.63 50.3477 214.235 50.3134 213.82 50.3134C212.502 50.3134 211.483 50.7996 210.766 51.7739C210.142 52.633 209.829 53.719 209.829 55.03V63.6814H206.085L206.12 52.3856C206.12 50.4852 206.072 48.7549 205.979 47.1947H209.242L209.379 50.3494H209.483C209.879 49.2652 210.502 48.3923 211.357 47.7377C212.191 47.1483 213.093 46.8545 214.064 46.8545C214.411 46.8545 214.723 46.8785 215.001 46.9215V50.4147Z" fill="white"/>
<path d="M231.755 54.6573C231.755 55.3137 231.712 55.867 231.619 56.3189H220.379C220.423 57.9478 220.966 59.1934 222.01 60.0529C222.957 60.8208 224.182 61.2057 225.686 61.2057C227.35 61.2057 228.868 60.9464 230.234 60.4254L230.82 62.9686C229.225 63.6492 227.341 63.9877 225.168 63.9877C222.553 63.9877 220.501 63.235 219.007 61.7313C217.516 60.2277 216.769 58.2089 216.769 55.6762C216.769 53.1899 217.464 51.1194 218.854 49.4681C220.309 47.7052 222.275 46.8237 224.749 46.8237C227.18 46.8237 229.019 47.7052 230.269 49.4681C231.258 50.8685 231.755 52.6005 231.755 54.6573ZM228.183 53.7071C228.207 52.6211 227.963 51.683 227.456 50.8909C226.807 49.8719 225.811 49.3633 224.47 49.3633C223.245 49.3633 222.249 49.8599 221.488 50.8565C220.864 51.6486 220.493 52.5988 220.379 53.7054H228.183V53.7071Z" fill="white"/>
<path d="M95.4819 26.3724H97.4125C99.2775 26.3724 100.37 27.1883 100.37 28.5633V28.5816C100.37 29.8558 99.2208 30.6899 97.4692 30.6899C95.6796 30.6899 94.5403 30.0024 94.3897 28.7833L94.38 28.7099H92.3174L92.327 28.8199C92.468 31.0016 94.465 32.4866 97.4692 32.4866C100.379 32.4866 102.527 30.855 102.527 28.6733V28.655C102.527 26.8766 101.406 25.6208 99.5885 25.4008V25.3275C101.095 24.9883 102.112 23.7599 102.112 22.2933V22.275C102.112 20.2308 100.247 18.8191 97.5162 18.8191C94.6718 18.8191 92.8164 20.1849 92.6754 22.4216L92.6657 22.5499H94.691L94.7001 22.4216C94.8604 21.2849 95.8496 20.6158 97.4505 20.6158C99.0798 20.6158 100.022 21.3216 100.022 22.495V22.5133C100.022 23.7782 98.9761 24.6491 97.3565 24.6491H95.4819V26.3724Z" fill="white"/>
<path d="M109.349 32.4408C110.667 32.4408 111.807 31.7808 112.381 30.7449H112.428V32.2666H114.462V25.6208C114.462 23.6866 112.927 22.4399 110.507 22.4399C108.068 22.4399 106.589 23.7141 106.447 25.3733L106.438 25.4741H108.359L108.378 25.3916C108.548 24.6216 109.273 24.0808 110.45 24.0808C111.713 24.0808 112.428 24.7224 112.428 25.7858V26.5099L109.725 26.6658C107.38 26.8033 106.042 27.8299 106.042 29.5075V29.5258C106.042 31.2582 107.37 32.4408 109.349 32.4408ZM108.096 29.4799V29.4616C108.096 28.6458 108.774 28.1233 109.998 28.0499L112.428 27.9033V28.655C112.428 29.9108 111.336 30.855 109.904 30.855C108.811 30.855 108.096 30.3233 108.096 29.4799Z" fill="white"/>
<path d="M125.296 24.2V22.6233H118.732V32.2666H120.766V24.2H125.296Z" fill="white"/>
<path d="M129.122 35.475H131.157V30.6441H131.204C131.788 31.7624 132.928 32.4591 134.331 32.4591C136.817 32.4591 138.446 30.5249 138.446 27.4541V27.4449C138.446 24.3649 136.826 22.4399 134.302 22.4399C132.89 22.4399 131.797 23.1366 131.204 24.2824H131.157V22.6233H129.122V35.475ZM133.775 30.7541C132.24 30.7541 131.148 29.4524 131.148 27.4541V27.4449C131.148 25.4375 132.23 24.1358 133.775 24.1358C135.376 24.1358 136.374 25.3916 136.374 27.4449V27.4541C136.374 29.4891 135.376 30.7541 133.775 30.7541Z" fill="white"/>
<path d="M143.224 35.4841C145.164 35.4841 146.2 34.7141 146.935 32.7158L150.627 22.6233H148.48L145.983 30.47H145.918L143.422 22.6233H141.218L144.826 32.2758L144.656 32.7341C144.317 33.6691 143.789 33.9166 142.829 33.9166C142.556 33.9166 142.32 33.88 142.16 33.8433V35.3924C142.405 35.4383 142.829 35.4841 143.224 35.4841Z" fill="white"/>
<path d="M157.618 32.4591C160.048 32.4591 161.658 31.2582 161.658 29.4616V29.4433C161.658 28.3158 160.942 27.5458 159.633 27.2891V27.2158C160.698 26.9775 161.385 26.1616 161.385 25.1258V25.1075C161.385 23.4575 159.991 22.4399 157.712 22.4399C155.48 22.4399 154.02 23.4666 153.784 25.1808L153.775 25.2541H155.715L155.725 25.1899C155.875 24.4566 156.619 24.0075 157.684 24.0075C158.757 24.0075 159.398 24.4933 159.398 25.3182V25.3366C159.398 26.1982 158.786 26.6382 157.59 26.6382H156.167V28.0775H157.599C158.974 28.0775 159.633 28.5175 159.633 29.4433V29.4616C159.633 30.3416 158.861 30.8824 157.608 30.8824C156.488 30.8824 155.753 30.4608 155.527 29.6816L155.499 29.5899H153.502L153.511 29.6724C153.709 31.3775 155.301 32.4591 157.618 32.4591Z" fill="white"/>
<path d="M165.57 32.2666H167.576L172.124 25.4924H172.209V32.2666H174.234V22.6233H172.228L167.679 29.37H167.585V22.6233H165.57V32.2666Z" fill="white"/>
<path d="M186.075 22.6233H177.835V24.2H180.933V32.2666H182.977V24.2H186.075V22.6233Z" fill="white"/>
<path d="M193.726 32.4591C196.128 32.4591 197.663 31.0658 197.973 29.535L198.002 29.4341H196.061L196.034 29.5075C195.779 30.2316 194.979 30.8366 193.773 30.8366C192.153 30.8366 191.127 29.7733 191.089 27.9491H198.105V27.2799C198.105 24.3833 196.401 22.4399 193.623 22.4399C190.844 22.4399 189.054 24.4566 189.054 27.4724V27.4816C189.054 30.5249 190.815 32.4591 193.726 32.4591ZM193.632 24.0624C194.96 24.0624 195.93 24.8782 196.09 26.5466H191.117C191.306 24.9333 192.313 24.0624 193.632 24.0624Z" fill="white"/>
<path d="M208.018 32.2666H212.577C214.724 32.2666 216.062 31.1849 216.062 29.4983V29.48C216.062 28.2975 215.214 27.4358 213.933 27.2708V27.1975C214.885 27.0233 215.619 26.1158 215.619 25.1166V25.0983C215.619 23.5675 214.451 22.6233 212.521 22.6233H208.018V32.2666ZM210.034 26.6017V24.09H212.097C213.076 24.09 213.604 24.5208 213.604 25.3183V25.3366C213.604 26.1891 213.038 26.6017 211.889 26.6017H210.034ZM210.034 30.8V28.0408H211.965C213.302 28.0408 213.971 28.4716 213.971 29.3975V29.4158C213.971 30.3324 213.349 30.8 212.2 30.8H210.034Z" fill="white"/>
</g>
<defs>
<clipPath id="clip0_2_195">
<rect width="305" height="88" fill="white"/>
</clipPath>
</defs>
</svg>
