<svg width="229" height="66" viewBox="0 0 229 66" fill="none" xmlns="http://www.w3.org/2000/svg">
<g clip-path="url(#clip0_2_241)">
<path d="M0 8.8C0 3.93989 4.05244 0 9.05138 0H219.949C224.948 0 229 3.9399 229 8.8V57.2C229 62.0602 224.948 66 219.949 66H9.05138C4.05244 66 0 62.0602 0 57.2V8.8Z" fill="#FCF9FF"/>
<path fill-rule="evenodd" clip-rule="evenodd" d="M0 57.2V8.8C0 3.9399 4.05244 0 9.05138 0H219.949C224.948 0 229 3.93989 229 8.8V57.2C229 62.0602 224.948 66 219.949 66H9.05138C4.05244 66 0 62.0602 0 57.2ZM1.35771 57.2V8.8C1.35771 4.66893 4.8023 1.32 9.05138 1.32H219.949C224.198 1.32 227.642 4.66893 227.642 8.8V57.2C227.642 61.3312 224.198 64.68 219.949 64.68H9.05138C4.8023 64.68 1.35771 61.3312 1.35771 57.2Z" fill="white" fill-opacity="0.3"/>
<path d="M51.749 34.344C51.7255 30.4758 53.5281 27.5605 57.1686 25.4108C55.1325 22.5749 52.0523 21.0151 47.9918 20.7145C44.1472 20.4196 39.941 22.8925 38.4009 22.8925C36.7732 22.8925 33.0512 20.8166 30.1226 20.8166C24.0786 20.9074 17.6555 25.5016 17.6555 34.8488C17.6555 37.611 18.1747 40.464 19.2132 43.402C20.6017 47.2703 25.6071 56.7479 30.8284 56.5948C33.5588 56.5323 35.4898 54.7116 39.0426 54.7116C42.4904 54.7116 44.2756 56.5948 47.3211 56.5948C52.589 56.5209 57.1161 47.9057 58.4344 44.0257C51.3698 40.7873 51.749 34.5426 51.749 34.344ZM45.6172 17.0448C48.5752 13.6303 48.3068 10.5222 48.2195 9.40479C45.6059 9.55227 42.5838 11.1347 40.8628 13.0801C38.9668 15.1674 37.8525 17.7481 38.0917 20.6578C40.9153 20.8677 43.4939 19.4554 45.6172 17.0448Z" fill="#190631"/>
<path d="M83.614 47.7609H80.6175L78.976 42.7233H73.2714L71.7078 47.7609H68.7905L74.4427 30.6108H77.9338L83.614 47.7609ZM78.4814 40.6099L76.997 36.1316C76.8404 35.6741 76.5458 34.5968 76.1117 32.9009H76.0592C75.8864 33.6303 75.608 34.7076 75.2252 36.1316L73.7674 40.6099H78.4814Z" fill="#190631"/>
<path d="M98.1496 41.4261C98.1496 43.5293 97.5681 45.1917 96.404 46.4122C95.3618 47.4986 94.0674 48.0411 92.5224 48.0411C90.8546 48.0411 89.6567 47.4559 88.9272 46.286H88.8742V52.8002H86.0615V39.466C86.0615 38.1438 86.0257 36.7868 85.9574 35.395H88.4311L88.5882 37.3551H88.6407C89.5788 35.8782 91.0026 35.1411 92.9129 35.1411C94.4064 35.1411 95.6532 35.7172 96.6507 36.8705C97.6509 38.0252 98.1496 39.5433 98.1496 41.4261ZM95.2839 41.5266C95.2839 40.323 95.007 39.3307 94.4503 38.5497C93.8421 37.7353 93.0252 37.328 92.0015 37.328C91.3072 37.328 90.6768 37.5549 90.1133 38.002C89.5485 38.4531 89.1792 39.042 89.0064 39.7714C88.9195 40.1116 88.8756 40.39 88.8756 40.6091V42.671C88.8756 43.5705 89.158 44.3297 89.7228 44.9492C90.2876 45.5692 91.0212 45.8785 91.9236 45.8785C92.9831 45.8785 93.8077 45.479 94.3974 44.6826C94.9884 43.8849 95.2839 42.8334 95.2839 41.5266Z" fill="#190631"/>
<path d="M112.712 41.4261C112.712 43.5293 112.13 45.1917 110.965 46.4122C109.925 47.4986 108.63 48.0411 107.085 48.0411C105.417 48.0411 104.219 47.4559 103.491 46.286H103.438V52.8002H100.626V39.466C100.626 38.1438 100.59 36.7868 100.521 35.395H102.995L103.152 37.3551H103.205C104.142 35.8782 105.565 35.1411 107.477 35.1411C108.969 35.1411 110.216 35.7172 111.216 36.8705C112.212 38.0252 112.712 39.5433 112.712 41.4261ZM109.847 41.5266C109.847 40.323 109.568 39.3307 109.012 38.5497C108.403 37.7353 107.589 37.328 106.564 37.328C105.869 37.328 105.24 37.5549 104.675 38.002C104.11 38.4531 103.742 39.042 103.569 39.7714C103.483 40.1116 103.438 40.39 103.438 40.6091V42.671C103.438 43.5705 103.721 44.3297 104.283 44.9492C104.848 45.5679 105.581 45.8785 106.486 45.8785C107.546 45.8785 108.37 45.479 108.96 44.6826C109.551 43.8849 109.847 42.8334 109.847 41.5266Z" fill="#190631"/>
<path d="M128.994 42.9517C128.994 44.4104 128.475 45.5975 127.434 46.5136C126.291 47.515 124.698 48.0149 122.652 48.0149C120.762 48.0149 119.247 47.6593 118.101 46.9465L118.753 44.6568C119.988 45.3863 121.343 45.7519 122.819 45.7519C123.879 45.7519 124.703 45.5174 125.296 45.051C125.885 44.5846 126.18 43.9582 126.18 43.1773C126.18 42.4814 125.937 41.895 125.45 41.4195C124.966 40.9439 124.157 40.502 123.028 40.0934C119.953 38.9735 118.418 37.333 118.418 35.1758C118.418 33.7659 118.956 32.6099 120.034 31.7104C121.108 30.8096 122.541 30.3599 124.333 30.3599C125.931 30.3599 127.257 30.6318 128.317 31.1743L127.614 33.4141C126.624 32.8883 125.506 32.6254 124.253 32.6254C123.264 32.6254 122.491 32.8638 121.937 33.338C121.468 33.762 121.233 34.2788 121.233 34.8909C121.233 35.5688 121.501 36.1294 122.039 36.5701C122.508 36.9773 123.359 37.4181 124.594 37.8936C126.104 38.4877 127.214 39.1823 127.928 39.9787C128.639 40.7726 128.994 41.7662 128.994 42.9517Z" fill="#190631"/>
<path d="M138.294 37.4571H135.193V43.4612C135.193 44.9884 135.74 45.7513 136.835 45.7513C137.338 45.7513 137.754 45.7087 138.084 45.6237L138.162 47.7102C137.608 47.9122 136.878 48.0143 135.974 48.0143C134.863 48.0143 133.995 47.6829 133.368 47.0221C132.744 46.3594 132.431 45.2484 132.431 43.688V37.4546H130.583V35.3926H132.431V33.1284L135.193 32.314V35.3926H138.294V37.4571Z" fill="#190631"/>
<path d="M152.284 41.4761C152.284 43.3769 151.727 44.9375 150.616 46.1581C149.451 47.4143 147.905 48.0408 145.977 48.0408C144.119 48.0408 142.64 47.4389 141.537 46.2351C140.434 45.0317 139.883 43.5122 139.883 41.681C139.883 39.7647 140.45 38.195 141.589 36.9746C142.724 35.7529 144.258 35.1421 146.185 35.1421C148.043 35.1421 149.538 35.7439 150.666 36.9489C151.746 38.1177 152.284 39.6268 152.284 41.4761ZM149.365 41.565C149.365 40.4245 149.116 39.4463 148.611 38.6306C148.021 37.6435 147.178 37.1512 146.085 37.1512C144.954 37.1512 144.095 37.6448 143.506 38.6306C143.001 39.4477 142.751 40.4412 142.751 41.6165C142.751 42.757 143.001 43.7352 143.506 44.5494C144.114 45.5368 144.964 46.0291 146.06 46.0291C147.134 46.0291 147.977 45.5267 148.585 44.5239C149.104 43.6926 149.365 42.7042 149.365 41.565Z" fill="#190631"/>
<path d="M161.427 37.8113C161.149 37.7611 160.852 37.7353 160.54 37.7353C159.551 37.7353 158.786 38.1 158.247 38.8306C157.779 39.475 157.544 40.2895 157.544 41.2727V47.7613H154.733L154.759 39.2894C154.759 37.8641 154.723 36.5664 154.653 35.3963H157.103L157.206 37.7623H157.284C157.581 36.9492 158.049 36.2945 158.691 35.8035C159.317 35.3615 159.994 35.1411 160.724 35.1411C160.984 35.1411 161.218 35.1592 161.427 35.1914V37.8113Z" fill="#190631"/>
<path d="M174.006 40.9929C174.006 41.4851 173.974 41.9001 173.904 42.239H165.465C165.498 43.4607 165.905 44.3949 166.689 45.0395C167.4 45.6155 168.32 45.9041 169.45 45.9041C170.699 45.9041 171.839 45.7097 172.864 45.3189L173.305 47.2263C172.107 47.7367 170.692 47.9906 169.06 47.9906C167.097 47.9906 165.556 47.4261 164.435 46.2984C163.315 45.1707 162.755 43.6566 162.755 41.7571C162.755 39.8923 163.276 38.3394 164.32 37.101C165.412 35.7788 166.888 35.1177 168.746 35.1177C170.571 35.1177 171.952 35.7788 172.89 37.101C173.633 38.1513 174.006 39.4503 174.006 40.9929ZM171.325 40.2802C171.343 39.4657 171.159 38.7621 170.778 38.168C170.291 37.4038 169.543 37.0223 168.536 37.0223C167.617 37.0223 166.869 37.3948 166.297 38.1422C165.829 38.7363 165.551 39.449 165.465 40.2789H171.325V40.2802Z" fill="#190631"/>
<path d="M71.6896 19.7793H73.1392C74.5395 19.7793 75.36 20.3912 75.36 21.4224V21.4362C75.36 22.3918 74.4969 23.0174 73.1818 23.0174C71.8381 23.0174 70.9827 22.5018 70.8696 21.5874L70.8623 21.5324H69.3137L69.3209 21.6149C69.4268 23.2512 70.9262 24.3649 73.1818 24.3649C75.3668 24.3649 76.9793 23.1412 76.9793 21.5049V21.4912C76.9793 20.1574 76.1375 19.2155 74.773 19.0505V18.9955C75.9044 18.7412 76.6679 17.8199 76.6679 16.7199V16.7062C76.6679 15.173 75.2677 14.1143 73.2171 14.1143C71.0814 14.1143 69.6884 15.1386 69.5825 16.8162L69.5752 16.9124H71.0959L71.1027 16.8162C71.223 15.9636 71.9657 15.4618 73.1677 15.4618C74.391 15.4618 75.0984 15.9912 75.0984 16.8712V16.8849C75.0984 17.8336 74.3132 18.4868 73.0971 18.4868H71.6896V19.7793Z" fill="#190631"/>
<path d="M82.101 24.3307C83.0908 24.3307 83.9466 23.8357 84.3779 23.0588H84.4132V24.2001H85.9406V19.2157C85.9406 17.7651 84.7879 16.8301 82.9708 16.8301C81.1393 16.8301 80.0291 17.7857 79.9228 19.0301L79.916 19.1057H81.3583L81.3724 19.0438C81.5 18.4664 82.0444 18.0607 82.9283 18.0607C83.876 18.0607 84.4132 18.5419 84.4132 19.3394V19.8826L82.3839 19.9994C80.6229 20.1026 79.6187 20.8726 79.6187 22.1307V22.1444C79.6187 23.4438 80.6157 24.3307 82.101 24.3307ZM81.1606 22.1101V22.0963C81.1606 21.4844 81.6697 21.0926 82.5889 21.0376L84.4132 20.9276V21.4913C84.4132 22.4332 83.5931 23.1413 82.5183 23.1413C81.6978 23.1413 81.1606 22.7426 81.1606 22.1101Z" fill="#190631"/>
<path d="M94.0747 18.1498V16.9673H89.1462V24.1998H90.6736V18.1498H94.0747Z" fill="#190631"/>
<path d="M96.9476 26.6063H98.475V22.9832H98.5103C98.9488 23.8219 99.8046 24.3444 100.858 24.3444C102.725 24.3444 103.948 22.8938 103.948 20.5907V20.5838C103.948 18.2738 102.732 16.8301 100.837 16.8301C99.7761 16.8301 98.9561 17.3526 98.5103 18.2119H98.475V16.9676H96.9476V26.6063ZM100.441 23.0657C99.2883 23.0657 98.4682 22.0894 98.4682 20.5907V20.5838C98.4682 19.0782 99.281 18.1019 100.441 18.1019C101.643 18.1019 102.392 19.0438 102.392 20.5838V20.5907C102.392 22.1169 101.643 23.0657 100.441 23.0657Z" fill="#190631"/>
<path d="M107.535 26.6129C108.992 26.6129 109.77 26.0354 110.322 24.5366L113.094 16.9673H111.481L109.607 22.8523H109.558L107.684 16.9673H106.029L108.738 24.2066L108.61 24.5504C108.356 25.2516 107.96 25.4373 107.239 25.4373C107.034 25.4373 106.857 25.4098 106.737 25.3823V26.5441C106.92 26.5785 107.239 26.6129 107.535 26.6129Z" fill="#190631"/>
<path d="M118.343 24.3444C120.167 24.3444 121.376 23.4438 121.376 22.0963V22.0826C121.376 21.2369 120.839 20.6594 119.856 20.4669V20.4119C120.655 20.2332 121.171 19.6213 121.171 18.8444V18.8307C121.171 17.5932 120.125 16.8301 118.413 16.8301C116.738 16.8301 115.641 17.6001 115.464 18.8857L115.458 18.9407H116.914L116.921 18.8926C117.034 18.3426 117.593 18.0057 118.392 18.0057C119.198 18.0057 119.679 18.3701 119.679 18.9888V19.0026C119.679 19.6488 119.219 19.9788 118.322 19.9788H117.253V21.0582H118.328C119.361 21.0582 119.856 21.3882 119.856 22.0826V22.0963C119.856 22.7564 119.276 23.1619 118.336 23.1619C117.494 23.1619 116.943 22.8457 116.773 22.2613L116.752 22.1926H115.252L115.259 22.2544C115.408 23.5332 116.603 24.3444 118.343 24.3444Z" fill="#190631"/>
<path d="M124.313 24.1998H125.819L129.234 19.1191H129.298V24.1998H130.818V16.9673H129.312L125.897 22.0273H125.826V16.9673H124.313V24.1998Z" fill="#190631"/>
<path d="M139.709 16.9673H133.522V18.1498H135.848V24.1998H137.383V18.1498H139.709V16.9673Z" fill="#190631"/>
<path d="M145.453 24.3444C147.257 24.3444 148.409 23.2994 148.642 22.1514L148.664 22.0757H147.207L147.186 22.1307C146.995 22.6738 146.394 23.1276 145.489 23.1276C144.272 23.1276 143.502 22.3301 143.473 20.9619H148.741V20.4601C148.741 18.2876 147.462 16.8301 145.376 16.8301C143.289 16.8301 141.946 18.3426 141.946 20.6044V20.6113C141.946 22.8938 143.268 24.3444 145.453 24.3444ZM145.382 18.0469C146.379 18.0469 147.108 18.6588 147.228 19.9101H143.494C143.636 18.7001 144.393 18.0469 145.382 18.0469Z" fill="#190631"/>
<path d="M156.184 24.1998H159.607C161.219 24.1998 162.223 23.3885 162.223 22.1235V22.1098C162.223 21.2229 161.587 20.5766 160.625 20.4529V20.3979C161.34 20.2673 161.891 19.5866 161.891 18.8373V18.8235C161.891 17.6754 161.014 16.9673 159.565 16.9673H156.184V24.1998ZM157.698 19.9511V18.0673H159.246C159.982 18.0673 160.378 18.3904 160.378 18.9885V19.0023C160.378 19.6416 159.953 19.9511 159.091 19.9511H157.698ZM157.698 23.0998V21.0304H159.147C160.152 21.0304 160.653 21.3535 160.653 22.0479V22.0616C160.653 22.7491 160.187 23.0998 159.324 23.0998H157.698Z" fill="#190631"/>
</g>
<defs>
<clipPath id="clip0_2_241">
<rect width="229" height="66" fill="white"/>
</clipPath>
</defs>
</svg>
