<svg width="305" height="88" viewBox="0 0 305 88" fill="none" xmlns="http://www.w3.org/2000/svg">
<g clip-path="url(#clip0_2_217)">
<path d="M0 11.7333C0 5.25319 5.39736 0 12.0553 0H292.945C299.603 0 305 5.2532 305 11.7333V76.2667C305 82.747 299.603 88 292.945 88H12.0553C5.39735 88 0 82.747 0 76.2667V11.7333Z" fill="black"/>
<path fill-rule="evenodd" clip-rule="evenodd" d="M0 76.2667V11.7333C0 5.2532 5.39735 0 12.0553 0H292.945C299.603 0 305 5.25319 305 11.7333V76.2667C305 82.747 299.603 88 292.945 88H12.0553C5.39736 88 0 82.747 0 76.2667ZM1.8083 76.2667V11.7333C1.8083 6.22524 6.39608 1.76 12.0553 1.76H292.945C298.604 1.76 303.192 6.22524 303.192 11.7333V76.2667C303.192 81.7749 298.604 86.24 292.945 86.24H12.0553C6.39608 86.24 1.8083 81.7749 1.8083 76.2667Z" fill="white" fill-opacity="0.3"/>
<path d="M154.541 47.8071C149.113 47.8071 144.628 51.9327 144.628 57.5893C144.628 63.1998 149.066 67.3716 154.541 67.3716C160.016 67.3716 164.453 63.2456 164.453 57.5893C164.453 51.9327 160.016 47.8071 154.541 47.8071ZM154.541 63.4791C151.566 63.4791 148.972 61.0209 148.972 57.5456C148.972 54.0221 151.568 51.6124 154.541 51.6124C157.513 51.6124 160.109 54.0221 160.109 57.5456C160.109 61.0209 157.513 63.4791 154.541 63.4791ZM132.97 47.8071C127.495 47.8071 123.057 51.9327 123.057 57.5893C123.057 63.1998 127.495 67.3716 132.97 67.3716C138.445 67.3716 142.882 63.2456 142.882 57.5893C142.882 51.9327 138.445 47.8071 132.969 47.8071H132.97ZM132.97 63.4791C129.995 63.4791 127.401 61.0209 127.401 57.5456C127.401 54.0221 129.998 51.6124 132.97 51.6124C135.944 51.6124 138.539 54.0221 138.539 57.5456C138.539 61.0209 135.988 63.4791 132.97 63.4791ZM107.34 50.821V54.9465H117.345C117.061 57.2644 116.261 58.9799 115.08 60.1397C113.617 61.5765 111.352 63.1535 107.34 63.1535C101.155 63.1535 96.3897 58.2395 96.3897 52.1657C96.3897 46.0918 101.158 41.085 107.34 41.085C110.69 41.085 113.098 42.3835 114.892 44.0532L117.864 41.1312C115.362 38.7677 112.012 36.96 107.34 36.96C98.8893 36.96 91.8086 43.774 91.8086 52.0733C91.8086 60.3732 98.8893 67.1874 107.34 67.1874C111.918 67.1874 115.317 65.7043 118.054 62.9211C120.839 60.1861 121.688 56.3369 121.688 53.2312C121.688 52.2581 121.595 51.3768 121.452 50.6346L107.34 50.821ZM212.22 54.0196C211.417 51.8403 208.87 47.8071 203.77 47.8071C198.671 47.8071 194.471 51.7484 194.471 57.5893C194.471 63.059 198.671 67.3716 204.243 67.3716C208.774 67.3716 211.37 64.6365 212.455 63.059L209.105 60.8338C207.971 62.4577 206.462 63.5225 204.243 63.5225C202.024 63.5225 200.468 62.5492 199.474 60.5551L212.643 55.1313L212.22 54.0196ZM198.815 57.3126C198.721 53.5561 201.789 51.6098 203.958 51.6098C205.706 51.6098 207.122 52.4444 207.64 53.6967L198.815 57.3126ZM188.099 66.7233H192.443V38.0712H188.099V66.7233ZM181.021 49.9864H180.88C179.889 48.8265 178.049 47.8071 175.687 47.8071C170.731 47.8071 166.247 52.1195 166.247 57.5893C166.247 63.059 170.778 67.3258 175.687 67.3258C178.046 67.3258 179.887 66.3056 180.88 65.1H181.021V66.4904C181.021 70.2474 178.99 72.2392 175.734 72.2392C173.091 72.2392 171.438 70.339 170.778 68.762L167.003 70.339C168.087 72.9355 170.968 76.134 175.734 76.134C180.831 76.134 185.127 73.1667 185.127 65.9812V48.4092H181.021V49.9864ZM176.065 63.4791C173.091 63.4791 170.59 61.0209 170.59 57.5918C170.59 54.1627 173.093 51.6581 176.065 51.6581C178.993 51.6581 181.352 54.1627 181.352 57.5918C181.35 60.9746 178.99 63.4791 176.065 63.4791ZM232.47 38.0717H222.086V66.7233H226.429V55.8734H232.47C237.285 55.8734 242.004 52.4419 242.004 46.9725C242.004 41.5028 237.285 38.0712 232.47 38.0712V38.0717ZM232.61 51.889H226.473V42.0582H232.61C235.82 42.0582 237.708 44.7009 237.708 46.9721C237.663 49.1975 235.822 51.889 232.61 51.889ZM259.328 47.7609C256.213 47.7609 252.956 49.1057 251.634 52.1657L255.459 53.7429C256.309 52.1657 257.818 51.656 259.424 51.656C261.69 51.656 263.955 53.0002 264.002 55.3638V55.643C263.199 55.1795 261.549 54.5292 259.471 54.5292C255.318 54.5292 251.115 56.8009 251.115 60.9746C251.115 64.8231 254.515 67.2795 258.29 67.2795C261.217 67.2795 262.821 65.9812 263.812 64.4517H263.953V66.6776H268.153V55.6886C268.106 50.6362 264.284 47.7604 259.328 47.7604V47.7609ZM258.809 63.4327C257.393 63.4327 255.41 62.7363 255.41 61.0227C255.41 58.7975 257.863 57.9629 259.988 57.9629C261.875 57.9629 262.772 58.3802 263.953 58.9359C263.622 61.5788 261.31 63.4327 258.809 63.4327ZM283.306 48.4117L278.349 60.7898H278.208L273.065 48.4112H268.393L276.133 65.75L271.742 75.44H276.273L288.12 48.4112H283.305L283.306 48.4117ZM244.412 66.7233H248.756V38.0712H244.412V66.7233Z" fill="white"/>
<path d="M104.932 24.6423V28.8968H103.126V26.3999H94.8224V28.8968H93.0165V24.6423H94.3667C94.817 24.029 95.1491 23.1474 95.3625 21.9976C95.5765 20.8367 95.6832 19.5774 95.6832 18.2194V14.6384H103.599V24.6423H104.932ZM101.708 24.6423V16.3961H97.5566V18.5315C97.5566 19.7581 97.4553 20.897 97.2528 21.9483C97.0617 22.9996 96.7694 23.8976 96.3752 24.6423H101.708Z" fill="white"/>
<path d="M112.596 26.6629C111.425 26.6629 110.362 26.3946 109.406 25.858C108.449 25.3104 107.695 24.5657 107.144 23.6239C106.604 22.6822 106.334 21.6473 106.334 20.5193C106.334 19.3913 106.604 18.362 107.144 17.4311C107.695 16.4893 108.449 15.7446 109.406 15.1971C110.362 14.6495 111.425 14.3757 112.596 14.3757C113.766 14.3757 114.823 14.6495 115.769 15.1971C116.725 15.7446 117.479 16.4893 118.03 17.4311C118.581 18.362 118.857 19.3913 118.857 20.5193C118.857 21.6473 118.581 22.6822 118.03 23.6239C117.49 24.5657 116.741 25.3104 115.785 25.858C114.829 26.3946 113.766 26.6629 112.596 26.6629ZM112.596 24.9052C113.394 24.9052 114.125 24.7191 114.79 24.3467C115.453 23.9744 115.977 23.4597 116.359 22.8026C116.741 22.1346 116.933 21.3735 116.933 20.5193C116.933 19.6651 116.741 18.9095 116.359 18.2524C115.977 17.5844 115.453 17.0642 114.79 16.6919C114.125 16.3195 113.394 16.1334 112.596 16.1334C111.796 16.1334 111.065 16.3195 110.401 16.6919C109.737 17.0642 109.209 17.5844 108.814 18.2524C108.432 18.9095 108.241 19.6651 108.241 20.5193C108.241 21.3735 108.432 22.1346 108.814 22.8026C109.209 23.4597 109.737 23.9744 110.401 24.3467C111.065 24.7191 111.796 24.9052 112.596 24.9052Z" fill="white"/>
<path d="M126.557 26.6629C125.386 26.6629 124.318 26.3946 123.35 25.858C122.382 25.3213 121.623 24.5821 121.072 23.6404C120.52 22.6986 120.245 21.6582 120.245 20.5193C120.245 19.3804 120.52 18.34 121.072 17.3982C121.623 16.4565 122.382 15.7173 123.35 15.1806C124.318 14.644 125.386 14.3757 126.557 14.3757C127.468 14.3757 128.295 14.54 129.038 14.8685C129.791 15.1971 130.456 15.6734 131.029 16.2977L129.679 17.5625C129.263 17.0807 128.802 16.7247 128.295 16.4948C127.789 16.2538 127.209 16.1334 126.557 16.1334C125.747 16.1334 125.004 16.3141 124.329 16.6755C123.665 17.0369 123.136 17.5515 122.743 18.2196C122.348 18.8766 122.152 19.6432 122.152 20.5193C122.152 21.3954 122.348 22.1674 122.743 22.8355C123.136 23.4925 123.665 24.0018 124.329 24.3631C125.004 24.7245 125.747 24.9052 126.557 24.9052C127.907 24.9052 129.055 24.3577 130 23.2626L131.367 24.5438C130.782 25.2119 130.078 25.732 129.257 26.1044C128.436 26.4767 127.536 26.6629 126.557 26.6629Z" fill="white"/>
<path d="M135.925 16.3961H132.549V14.6384H141.19V16.3961H137.815V26.3999H135.925V16.3961Z" fill="white"/>
<path d="M144.32 26.6627C143.903 26.6627 143.549 26.5916 143.257 26.4492V24.6587C143.628 24.8558 143.965 24.9544 144.269 24.9544C144.573 24.9544 144.815 24.8996 144.995 24.7901C145.175 24.6697 145.338 24.4506 145.484 24.133L145.906 23.2789L141.89 14.6384H143.999L146.818 21.1598H146.919L149.754 14.6384H151.864L147.24 24.5273C146.902 25.261 146.492 25.8031 146.008 26.1535C145.535 26.493 144.973 26.6627 144.32 26.6627Z" fill="white"/>
<path d="M153.503 14.6384H162.499V26.3999H160.608V16.3961H155.393V26.3999H153.503V14.6384Z" fill="white"/>
<path d="M165.255 14.6384H167.145V19.5171H172.748V14.6384H174.622V26.3999H172.748V21.2584H167.145V26.3999H165.255V14.6384Z" fill="white"/>
<path d="M182.874 26.6629C181.704 26.6629 180.641 26.3946 179.684 25.858C178.728 25.3104 177.974 24.5657 177.423 23.6239C176.883 22.6822 176.612 21.6473 176.612 20.5193C176.612 19.3913 176.883 18.362 177.423 17.4311C177.974 16.4893 178.728 15.7446 179.684 15.1971C180.641 14.6495 181.704 14.3757 182.874 14.3757C184.045 14.3757 185.102 14.6495 186.047 15.1971C187.004 15.7446 187.758 16.4893 188.309 17.4311C188.86 18.362 189.136 19.3913 189.136 20.5193C189.136 21.6473 188.86 22.6822 188.309 23.6239C187.769 24.5657 187.02 25.3104 186.064 25.858C185.108 26.3946 184.045 26.6629 182.874 26.6629ZM182.874 24.9052C183.673 24.9052 184.404 24.7191 185.068 24.3467C185.732 23.9744 186.256 23.4597 186.638 22.8026C187.02 22.1346 187.212 21.3735 187.212 20.5193C187.212 19.6651 187.02 18.9095 186.638 18.2524C186.256 17.5844 185.732 17.0642 185.068 16.6919C184.404 16.3195 183.673 16.1334 182.874 16.1334C182.075 16.1334 181.344 16.3195 180.68 16.6919C180.016 17.0642 179.488 17.5844 179.093 18.2524C178.711 18.9095 178.52 19.6651 178.52 20.5193C178.52 21.3735 178.711 22.1346 179.093 22.8026C179.488 23.4597 180.016 23.9744 180.68 24.3467C181.344 24.7191 182.075 24.9052 182.874 24.9052Z" fill="white"/>
<path d="M195.251 14.6384H199.791C200.433 14.6384 201.023 14.7753 201.563 15.0491C202.115 15.3229 202.554 15.7007 202.88 16.1825C203.207 16.6644 203.369 17.1955 203.369 17.7759C203.369 18.3563 203.217 18.8601 202.914 19.2872C202.621 19.7143 202.233 20.0373 201.749 20.2563V20.3549C202.357 20.563 202.846 20.908 203.217 21.3898C203.6 21.8716 203.791 22.4356 203.791 23.0817C203.791 23.7278 203.617 24.3028 203.268 24.8065C202.93 25.3103 202.469 25.7045 201.884 25.9893C201.31 26.2631 200.68 26.3999 199.994 26.3999H195.251V14.6384ZM199.707 19.5664C200.247 19.5664 200.68 19.4022 201.006 19.0736C201.344 18.7451 201.513 18.3673 201.513 17.9402C201.513 17.5131 201.35 17.1407 201.023 16.8232C200.709 16.4946 200.292 16.3304 199.774 16.3304H197.142V19.5664H199.707ZM199.994 24.6915C200.568 24.6915 201.023 24.5163 201.361 24.1659C201.71 23.8155 201.884 23.4103 201.884 22.9503C201.884 22.4794 201.704 22.0743 201.344 21.7347C200.996 21.3843 200.523 21.2091 199.926 21.2091H197.142V24.6915H199.994Z" fill="white"/>
<path d="M64.3104 53.435C71.5322 49.5399 77.0071 46.5723 77.479 46.3418C78.9884 45.553 80.5477 43.4661 77.479 41.8452C76.4881 41.3355 71.1542 38.4597 64.3104 34.752L54.8235 44.1625L64.3098 53.435H64.3104Z" fill="#FFD900"/>
<path d="M54.823 44.1626L24.6145 74.0672C25.3231 74.1593 26.1237 73.9745 27.0679 73.4647C29.0495 72.3999 50.0542 61.1323 64.3104 53.4372L54.823 44.1626Z" fill="#F43249"/>
<path d="M54.8236 44.1625L64.3098 34.7976C64.3098 34.7976 29.1932 15.974 27.068 14.8632C26.2685 14.3962 25.3712 14.2581 24.5687 14.3962L54.8236 44.162V44.1625Z" fill="#00EE76"/>
<path d="M54.8236 44.1625L24.5681 14.3967C23.3402 14.6755 22.3024 15.741 22.3024 17.9193V70.5431C22.3024 72.5377 23.1055 73.9745 24.6146 74.1124L54.8231 44.162L54.8236 44.1625Z" fill="#00D3FF"/>
</g>
<defs>
<clipPath id="clip0_2_217">
<rect width="305" height="88" fill="white"/>
</clipPath>
</defs>
</svg>
