<svg width="229" height="66" viewBox="0 0 229 66" fill="none" xmlns="http://www.w3.org/2000/svg">
<g clip-path="url(#clip0_2_263)">
<path d="M0 8.8C0 3.93989 4.05244 0 9.05138 0H219.949C224.948 0 229 3.9399 229 8.8V57.2C229 62.0602 224.948 66 219.949 66H9.05138C4.05244 66 0 62.0602 0 57.2V8.8Z" fill="#FCF9FF"/>
<path fill-rule="evenodd" clip-rule="evenodd" d="M0 57.2V8.8C0 3.9399 4.05244 0 9.05138 0H219.949C224.948 0 229 3.93989 229 8.8V57.2C229 62.0602 224.948 66 219.949 66H9.05138C4.05244 66 0 62.0602 0 57.2ZM1.35771 57.2V8.8C1.35771 4.66893 4.8023 1.32 9.05138 1.32H219.949C224.198 1.32 227.642 4.66893 227.642 8.8V57.2C227.642 61.3312 224.198 64.68 219.949 64.68H9.05138C4.8023 64.68 1.35771 61.3312 1.35771 57.2Z" fill="white" fill-opacity="0.3"/>
<path d="M116.032 35.8556C111.957 35.8556 108.59 38.9498 108.59 43.1922C108.59 47.4001 111.922 50.5289 116.032 50.5289C120.143 50.5289 123.474 47.4344 123.474 43.1922C123.474 38.9498 120.143 35.8556 116.032 35.8556ZM116.032 47.6095C113.799 47.6095 111.851 45.7659 111.851 43.1595C111.851 40.5168 113.8 38.7095 116.032 38.7095C118.264 38.7095 120.213 40.5168 120.213 43.1595C120.213 45.7659 118.264 47.6095 116.032 47.6095ZM99.8363 35.8556C95.7256 35.8556 92.3938 38.9498 92.3938 43.1922C92.3938 47.4001 95.7256 50.5289 99.8363 50.5289C103.947 50.5289 107.279 47.4344 107.279 43.1922C107.279 38.9498 103.947 35.8556 99.8358 35.8556H99.8363ZM99.8363 47.6095C97.6029 47.6095 95.6555 45.7659 95.6555 43.1595C95.6555 40.5168 97.6047 38.7095 99.8363 38.7095C102.07 38.7095 104.018 40.5168 104.018 43.1595C104.018 45.7659 102.103 47.6095 99.8363 47.6095ZM80.5926 38.116V41.2101H88.1052C87.8916 42.9485 87.2911 44.2352 86.4045 45.1051C85.3061 46.1826 83.6049 47.3653 80.5926 47.3653C75.9492 47.3653 72.3712 43.6799 72.3712 39.1245C72.3712 34.5691 75.9511 30.814 80.5926 30.814C83.108 30.814 84.9164 31.7879 86.2633 33.0401L88.4949 30.8487C86.6158 29.076 84.1005 27.7202 80.5926 27.7202C74.248 27.7202 68.9317 32.8307 68.9317 39.0552C68.9317 45.2802 74.248 50.3908 80.5926 50.3908C84.0299 50.3908 86.5824 49.2785 88.6375 47.1911C90.7283 45.1398 91.366 42.2529 91.366 39.9237C91.366 39.1938 91.2959 38.5329 91.1886 37.9762L80.5926 38.116ZM159.339 40.5149C158.736 38.8805 156.824 35.8556 152.995 35.8556C149.166 35.8556 146.013 38.8116 146.013 43.1922C146.013 47.2945 149.166 50.5289 153.349 50.5289C156.751 50.5289 158.701 48.4777 159.515 47.2945L157 45.6256C156.149 46.8435 155.015 47.6421 153.349 47.6421C151.684 47.6421 150.515 46.9121 149.769 45.4166L159.657 41.3487L159.339 40.5149ZM149.274 42.9847C149.203 40.1673 151.507 38.7076 153.136 38.7076C154.448 38.7076 155.511 39.3335 155.9 40.2728L149.274 42.9847ZM141.229 50.0427H144.49V28.5536H141.229V50.0427ZM135.914 37.4901H135.808C135.064 36.6201 133.683 35.8556 131.909 35.8556C128.188 35.8556 124.821 39.0899 124.821 43.1922C124.821 47.2945 128.223 50.4946 131.909 50.4946C133.681 50.4946 135.063 49.7295 135.808 48.8253H135.914V49.8681C135.914 52.6858 134.39 54.1796 131.945 54.1796C129.96 54.1796 128.719 52.7545 128.223 51.5717L125.389 52.7545C126.203 54.7019 128.366 57.1008 131.945 57.1008C135.772 57.1008 138.997 54.8753 138.997 49.4861V36.3071H135.914V37.4901ZM132.193 47.6095C129.96 47.6095 128.082 45.7659 128.082 43.1941C128.082 40.6223 129.962 38.7438 132.193 38.7438C134.391 38.7438 136.163 40.6223 136.163 43.1941C136.161 45.7312 134.39 47.6095 132.193 47.6095ZM174.543 28.554H166.746V50.0427H170.007V41.9053H174.543C178.158 41.9053 181.702 39.3316 181.702 35.2297C181.702 31.1274 178.158 28.5536 174.543 28.5536V28.554ZM174.648 38.917H170.041V31.5439H174.648C177.058 31.5439 178.476 33.5259 178.476 35.2293C178.442 36.8984 177.06 38.917 174.648 38.917ZM194.708 35.8209C192.369 35.8209 189.924 36.8295 188.932 39.1245L191.803 40.3074C192.441 39.1245 193.575 38.7423 194.781 38.7423C196.482 38.7423 198.183 39.7504 198.218 41.5231V41.7325C197.615 41.3849 196.376 40.8972 194.816 40.8972C191.698 40.8972 188.542 42.6009 188.542 45.7312C188.542 48.6176 191.095 50.4599 193.93 50.4599C196.127 50.4599 197.331 49.4861 198.076 48.3391H198.181V50.0084H201.334V41.7667C201.3 37.9774 198.429 35.8206 194.708 35.8206V35.8209ZM194.319 47.5748C193.256 47.5748 191.767 47.0525 191.767 45.7673C191.767 44.0983 193.609 43.4724 195.204 43.4724C196.621 43.4724 197.294 43.7854 198.181 44.2022C197.933 46.1844 196.196 47.5748 194.319 47.5748ZM212.712 36.309L208.99 45.5926H208.884L205.022 36.3087H201.515L207.326 49.3128L204.029 56.5803H207.431L216.326 36.3087H212.711L212.712 36.309ZM183.51 50.0427H186.771V28.5536H183.51V50.0427Z" fill="#190631"/>
<path d="M78.785 18.4819V21.6728H77.4291V19.8001H71.1945V21.6728H69.8386V18.4819H70.8524C71.1904 18.022 71.4398 17.3608 71.6 16.4984C71.7607 15.6277 71.8408 14.6832 71.8408 13.6648V10.979H77.7839V18.4819H78.785ZM76.3647 18.4819V12.2972H73.2474V13.8988C73.2474 14.8188 73.1713 15.6729 73.0193 16.4614C72.8758 17.2499 72.6563 17.9234 72.3603 18.4819H76.3647Z" fill="#190631"/>
<path d="M84.539 19.9971C83.6601 19.9971 82.8618 19.7959 82.144 19.3934C81.4258 18.9828 80.8596 18.4242 80.4455 17.7179C80.04 17.0116 79.8377 16.2354 79.8377 15.3894C79.8377 14.5434 80.04 13.7714 80.4455 13.0733C80.8596 12.3669 81.4258 11.8084 82.144 11.3977C82.8618 10.9871 83.6601 10.7817 84.539 10.7817C85.4174 10.7817 86.2117 10.9871 86.9213 11.3977C87.6391 11.8084 88.2053 12.3669 88.6189 13.0733C89.033 13.7714 89.2403 14.5434 89.2403 15.3894C89.2403 16.2354 89.033 17.0116 88.6189 17.7179C88.2134 18.4242 87.6518 18.9828 86.934 19.3934C86.2158 19.7959 85.4174 19.9971 84.539 19.9971ZM84.539 18.6789C85.1387 18.6789 85.6876 18.5392 86.1863 18.26C86.6846 17.9807 87.0775 17.5947 87.3648 17.1019C87.6518 16.6009 87.7952 16.0301 87.7952 15.3894C87.7952 14.7488 87.6518 14.1821 87.3648 13.6893C87.0775 13.1882 86.6846 12.7981 86.1863 12.5189C85.6876 12.2396 85.1387 12.1 84.539 12.1C83.9389 12.1 83.3899 12.2396 82.8912 12.5189C82.3929 12.7981 81.996 13.1882 81.7 13.6893C81.4131 14.1821 81.2692 14.7488 81.2692 15.3894C81.2692 16.0301 81.4131 16.6009 81.7 17.1019C81.996 17.5947 82.3929 17.9807 82.8912 18.26C83.3899 18.5392 83.9389 18.6789 84.539 18.6789Z" fill="#190631"/>
<path d="M95.0214 19.9971C94.1425 19.9971 93.3401 19.7959 92.6137 19.3934C91.8869 18.9909 91.3167 18.4365 90.903 17.7302C90.4889 17.0239 90.2821 16.2436 90.2821 15.3894C90.2821 14.5352 90.4889 13.7549 90.903 13.0486C91.3167 12.3423 91.8869 11.7879 92.6137 11.3854C93.3401 10.983 94.1425 10.7817 95.0214 10.7817C95.7057 10.7817 96.3266 10.9049 96.8842 11.1513C97.4499 11.3977 97.9486 11.755 98.3795 12.2232L97.3657 13.1718C97.053 12.8104 96.7068 12.5435 96.3266 12.371C95.9465 12.1903 95.5111 12.1 95.0214 12.1C94.4132 12.1 93.8556 12.2355 93.3487 12.5065C92.85 12.7776 92.4531 13.1636 92.1576 13.6646C91.8616 14.1574 91.714 14.7324 91.714 15.3894C91.714 16.0465 91.8616 16.6255 92.1576 17.1265C92.4531 17.6193 92.85 18.0013 93.3487 18.2723C93.8556 18.5433 94.4132 18.6789 95.0214 18.6789C96.0352 18.6789 96.8969 18.2682 97.6065 17.4469L98.6329 18.4078C98.1935 18.9088 97.6653 19.2989 97.0489 19.5782C96.4321 19.8575 95.7564 19.9971 95.0214 19.9971Z" fill="#190631"/>
<path d="M102.055 12.2972H99.5204V10.979H106.008V12.2972H103.474V19.8001H102.055V12.2972Z" fill="#190631"/>
<path d="M108.358 19.9972C108.045 19.9972 107.779 19.9439 107.56 19.8371V18.4942C107.839 18.642 108.092 18.716 108.32 18.716C108.548 18.716 108.73 18.6749 108.865 18.5928C109 18.5024 109.123 18.3381 109.233 18.1L109.549 17.4593L106.533 10.979H108.117L110.234 15.87H110.31L112.439 10.979H114.023L110.55 18.3956C110.297 18.946 109.989 19.3525 109.625 19.6153C109.271 19.8699 108.848 19.9972 108.358 19.9972Z" fill="#190631"/>
<path d="M115.253 10.979H122.007V19.8001H120.588V12.2972H116.672V19.8001H115.253V10.979Z" fill="#190631"/>
<path d="M124.076 10.979H125.496V14.638H129.703V10.979H131.109V19.8001H129.703V15.944H125.496V19.8001H124.076V10.979Z" fill="#190631"/>
<path d="M137.305 19.9971C136.427 19.9971 135.629 19.7959 134.91 19.3934C134.193 18.9828 133.626 18.4242 133.212 17.7179C132.807 17.0116 132.604 16.2354 132.604 15.3894C132.604 14.5434 132.807 13.7714 133.212 13.0733C133.626 12.3669 134.193 11.8084 134.91 11.3977C135.629 10.9871 136.427 10.7817 137.305 10.7817C138.184 10.7817 138.978 10.9871 139.688 11.3977C140.406 11.8084 140.972 12.3669 141.386 13.0733C141.8 13.7714 142.007 14.5434 142.007 15.3894C142.007 16.2354 141.8 17.0116 141.386 17.7179C140.98 18.4242 140.419 18.9828 139.7 19.3934C138.983 19.7959 138.184 19.9971 137.305 19.9971ZM137.305 18.6789C137.906 18.6789 138.454 18.5392 138.953 18.26C139.452 17.9807 139.844 17.5947 140.131 17.1019C140.419 16.6009 140.562 16.0301 140.562 15.3894C140.562 14.7488 140.419 14.1821 140.131 13.6893C139.844 13.1882 139.452 12.7981 138.953 12.5189C138.454 12.2396 137.906 12.1 137.305 12.1C136.706 12.1 136.157 12.2396 135.658 12.5189C135.16 12.7981 134.763 13.1882 134.467 13.6893C134.18 14.1821 134.036 14.7488 134.036 15.3894C134.036 16.0301 134.18 16.6009 134.467 17.1019C134.763 17.5947 135.16 17.9807 135.658 18.26C136.157 18.5392 136.706 18.6789 137.305 18.6789Z" fill="#190631"/>
<path d="M146.598 10.979H150.007C150.489 10.979 150.932 11.0817 151.338 11.287C151.752 11.4924 152.081 11.7757 152.326 12.1371C152.571 12.4985 152.694 12.8968 152.694 13.3321C152.694 13.7674 152.58 14.1452 152.352 14.4656C152.132 14.7859 151.841 15.0282 151.477 15.1924V15.2664C151.933 15.4224 152.301 15.6812 152.58 16.0425C152.867 16.4039 153.01 16.8269 153.01 17.3115C153.01 17.7961 152.88 18.2273 152.618 18.6051C152.364 18.9829 152.018 19.2786 151.579 19.4921C151.148 19.6975 150.675 19.8001 150.159 19.8001H146.598V10.979ZM149.944 14.675C150.349 14.675 150.675 14.5518 150.92 14.3054C151.173 14.059 151.3 13.7756 151.3 13.4553C151.3 13.135 151.178 12.8557 150.932 12.6176C150.696 12.3712 150.383 12.248 149.995 12.248H148.018V14.675H149.944ZM150.159 18.5188C150.59 18.5188 150.932 18.3874 151.186 18.1246C151.448 17.8618 151.579 17.5579 151.579 17.2129C151.579 16.8597 151.444 16.5559 151.173 16.3012C150.911 16.0384 150.557 15.907 150.109 15.907H148.018V18.5188H150.159Z" fill="#190631"/>
<path d="M48.2855 40.0762C53.7078 37.1549 57.8185 34.9292 58.1728 34.7563C59.306 34.1647 60.4768 32.5995 58.1728 31.3839C57.4288 31.0016 53.424 28.8448 48.2855 26.064L41.1626 33.1219L48.2851 40.0762H48.2855Z" fill="#FFD900"/>
<path d="M41.1622 33.1221L18.4811 55.5505C19.0131 55.6196 19.6142 55.481 20.3231 55.0986C21.8109 54.3 37.5817 45.8494 48.2855 40.078L41.1622 33.1221Z" fill="#F43249"/>
<path d="M41.1626 33.1217L48.2851 26.0981C48.2851 26.0981 21.9189 11.9804 20.3232 11.1473C19.7229 10.797 19.0493 10.6935 18.4467 10.797L41.1626 33.1213V33.1217Z" fill="#00EE76"/>
<path d="M41.1627 33.1217L18.4462 10.7974C17.5242 11.0064 16.7451 11.8055 16.7451 13.4393V52.9071C16.7451 54.4031 17.3481 55.4807 18.4812 55.5841L41.1622 33.1213L41.1627 33.1217Z" fill="#00D3FF"/>
</g>
<defs>
<clipPath id="clip0_2_263">
<rect width="229" height="66" fill="white"/>
</clipPath>
</defs>
</svg>
