<svg width="104" height="87" viewBox="0 0 104 87" fill="none" xmlns="http://www.w3.org/2000/svg">
<g id="Group">
<g id="Group_2">
<path id="Vector" d="M20.2645 39.15H0.75V87H20.2645V39.15Z" fill="#190631"/>
<path id="Vector_2" d="M73.9294 5.4375C77.1005 2.1315 82.0279 0 87.1017 0C96.1272 0 103.201 6.3075 103.201 14.355C103.201 24.2295 89.0044 35.67 73.9294 47.85C58.8545 35.6265 44.6577 24.186 44.6577 14.355C44.6577 6.3075 51.7317 0 60.7571 0C65.8309 0 70.7583 2.1315 73.9294 5.4375Z" fill="#190631"/>
<path id="Vector_3" d="M93.4438 65.25H59.2934L49.097 62.0745L50.707 57.9855L59.2934 60.9H73.0511C76.2222 60.9 78.8079 58.5945 78.8079 55.767C78.8079 53.6355 77.2955 51.7215 75.0513 50.9385L39.6325 39.15H30.0216V78.387L64.172 87L103.25 73.95C103.201 69.165 98.859 65.25 93.4438 65.25Z" fill="#190631"/>
</g>
</g>
</svg>
