<svg width="100" height="36" viewBox="0 0 100 36" fill="none" xmlns="http://www.w3.org/2000/svg">
<path id="Logo" fill-rule="evenodd" clip-rule="evenodd" d="M21.8783 0H26.9271L18.6994 15.6831H24.6832L35.3419 36H30.293L13.4045 20.3169H0L21.8783 0ZM56.9814 10.1826C56.9814 10.5199 56.9129 10.8351 56.7759 11.1281C56.648 11.421 56.4701 11.6784 56.2417 11.9005C56.0135 12.1135 55.7442 12.2867 55.4337 12.4197C55.1324 12.5441 54.8083 12.6063 54.4613 12.6063C54.1143 12.6063 53.7856 12.5441 53.4752 12.4197C53.1739 12.2867 52.9091 12.1135 52.6809 11.9005C52.4618 11.6784 52.2837 11.421 52.1467 11.1281C52.0189 10.8351 51.955 10.5199 51.955 10.1826C51.955 9.85408 52.0189 9.54337 52.1467 9.25039C52.2837 8.94855 52.4618 8.6911 52.6809 8.47803C52.9091 8.25608 53.1739 8.08296 53.4752 7.95867C53.7856 7.82551 54.1143 7.75892 54.4613 7.75892C54.8083 7.75892 55.1324 7.82551 55.4337 7.95867C55.7442 8.08296 56.0135 8.25608 56.2417 8.47803C56.4701 8.6911 56.648 8.94855 56.7759 9.25039C56.9129 9.54337 56.9814 9.85408 56.9814 10.1826ZM56.3377 28.3199H52.5713V14.0577H56.3377V28.3199ZM50.914 28.3199H37.1634V9.22377H41.0941V24.4981H50.914V28.3199ZM59.2 28.3199H62.9391V20.1702C62.9391 19.7972 63.0121 19.4465 63.1582 19.1181C63.3043 18.7808 63.5051 18.4877 63.7608 18.2392C64.0164 17.9906 64.3178 17.7953 64.6647 17.6533C65.0117 17.5112 65.3815 17.4402 65.774 17.4402C66.1576 17.4402 66.5182 17.5112 66.856 17.6533C67.1938 17.7953 67.4907 17.9906 67.7463 18.2392C68.002 18.4877 68.2028 18.7808 68.3489 19.1181C68.495 19.4465 68.568 19.7972 68.568 20.1702V28.3199H72.307V20.1702C72.307 19.2912 72.1336 18.4656 71.7865 17.6932C71.4487 16.912 70.9831 16.2328 70.3896 15.6558C69.7961 15.0698 69.1022 14.6126 68.3078 14.2841C67.5134 13.9467 66.6689 13.7781 65.774 13.7781C64.9432 13.7781 64.1443 13.9246 63.3773 14.2175C62.6195 14.5016 61.9392 14.9101 61.3366 15.4427L60.104 14.0577H59.2V28.3199ZM82.1406 28.3199C81.2367 28.3199 80.3876 28.1558 79.5932 27.8273C78.7988 27.4899 78.1003 27.0327 77.4978 26.4556C76.9042 25.8697 76.4341 25.1905 76.0871 24.4181C75.7493 23.6458 75.5803 22.8201 75.5803 21.9413V17.7065H73.7587V14.0843H75.5803V8.3848H79.3056V14.0843H84.9757V17.7065H79.3056V21.9413C79.3056 22.323 79.3786 22.6826 79.5247 23.0199C79.6708 23.3484 79.8717 23.6369 80.1274 23.8855C80.383 24.134 80.6843 24.3338 81.0313 24.4847C81.3782 24.6268 81.748 24.6978 82.1406 24.6978H84.9757V28.3199H82.1406ZM96.8911 27.4144C97.2381 27.1747 97.5622 26.9217 97.8635 26.6554L99.0962 28.3199H100V14.0577H96.2611V21.9413C96.2611 22.323 96.188 22.6959 96.0419 23.0598C95.8959 23.415 95.6949 23.7346 95.4393 24.0186C95.1836 24.3027 94.8823 24.5336 94.5354 24.7112C94.1975 24.8798 93.8368 24.9642 93.4534 24.9642C93.0608 24.9642 92.691 24.8976 92.3441 24.7644C92.0062 24.6312 91.7095 24.4359 91.4538 24.1785C91.1982 23.921 90.9928 23.6059 90.8375 23.233C90.6914 22.8512 90.6183 22.4206 90.6183 21.9413V14.0577H86.8931V21.9413C86.8931 22.9622 87.062 23.8855 87.3998 24.7112C87.7469 25.5279 88.217 26.2248 88.8106 26.8019C89.4131 27.3701 90.1116 27.8095 90.906 28.1202C91.7004 28.431 92.5495 28.5863 93.4534 28.5863C93.8643 28.5863 94.266 28.533 94.6587 28.4265C95.0604 28.3289 95.4485 28.1957 95.8228 28.027C96.1971 27.8494 96.5533 27.6452 96.8911 27.4144Z" fill="#7534FF"/>
</svg>
