<svg width="101" height="98" viewBox="0 0 101 98" fill="none" xmlns="http://www.w3.org/2000/svg">
<g id="ic:round-rocket-launch">
<path id="Vector" d="M38.7917 26.1646C30.2917 35.42 24.4583 48.7171 23.9167 49.97L14.5 46.0496C11.7917 44.9179 11.125 41.4825 13.2083 39.4617L25.75 27.2963C27.7083 25.3967 30.5417 24.5479 33.2917 25.0733L38.7917 26.1646ZM45 67.2279C46.25 68.4404 48.0833 68.7638 49.6667 68.0363C54.5 65.8538 64.875 60.7208 71.5833 54.2138C90.7083 35.6625 90.875 20.5467 89.75 14.08C89.6025 13.2857 89.2082 12.5541 88.6198 11.9834C88.0314 11.4127 87.2772 11.0301 86.4583 10.8871C79.7917 9.79584 64.2083 9.95751 45.0833 28.5088C38.375 35.0158 33.125 45.0796 30.8333 49.7679C30.0833 51.3038 30.4583 53.1225 31.6667 54.2946L45 67.2279ZM74.0417 60.3571C64.5 68.6021 50.7917 74.2604 49.5 74.7858L53.5417 83.92C54.7083 86.5471 58.25 87.1938 60.3333 85.1729L72.875 73.0075C74.8333 71.1079 75.7083 68.3596 75.1667 65.6921L74.0417 60.3571ZM37.75 70.8654C38.154 72.8228 38.0536 74.8467 37.4575 76.7575C36.8615 78.6682 35.7883 80.4066 34.3333 81.8183C31.125 84.9304 21.1667 87.2342 14.7083 88.4467C11.8333 88.9721 9.29166 86.5067 9.83332 83.7179C11.0833 77.4533 13.4167 67.7938 16.6667 64.6817C18.1221 63.2703 19.9143 62.2293 21.8841 61.6512C23.8539 61.073 25.9404 60.9756 27.9583 61.3675C32.8333 62.2567 36.8333 66.1367 37.75 70.8654ZM54.6667 36.875C54.6667 32.4292 58.4167 28.7917 63 28.7917C67.5833 28.7917 71.3333 32.4292 71.3333 36.875C71.3333 41.3208 67.5833 44.9583 63 44.9583C58.4167 44.9583 54.6667 41.3208 54.6667 36.875Z" fill="#190631"/>
</g>
</svg>
