<svg width="193" height="170" viewBox="0 0 193 170" fill="none" xmlns="http://www.w3.org/2000/svg">
<path d="M2.18 20V6H11.36L11.34 7.74H3.66L4.14 7.24L4.16 20H2.18ZM8.5375 19.98L8.6575 18.36C8.75083 18.3733 8.8375 18.3867 8.9175 18.4C8.9975 18.4133 9.07083 18.42 9.1375 18.42C9.56417 18.42 9.8975 18.2733 10.1375 17.98C10.3908 17.6867 10.5775 17.3 10.6975 16.82C10.8175 16.3267 10.9042 15.7733 10.9575 15.16C11.0108 14.5467 11.0508 13.9333 11.0775 13.32L11.2575 9.4H19.3975V20H17.4775V10.52L17.9375 11.08H12.4975L12.9375 10.5L12.7975 13.44C12.7575 14.3733 12.6842 15.2467 12.5775 16.06C12.4708 16.8733 12.3042 17.5867 12.0775 18.2C11.8642 18.8133 11.5642 19.2933 11.1775 19.64C10.8042 19.9867 10.3175 20.16 9.7175 20.16C9.54417 20.16 9.3575 20.14 9.1575 20.1C8.97083 20.0733 8.76417 20.0333 8.5375 19.98ZM29.61 20V17.76L29.51 17.34V13.52C29.51 12.7067 29.27 12.08 28.79 11.64C28.3233 11.1867 27.6167 10.96 26.67 10.96C26.0433 10.96 25.43 11.0667 24.83 11.28C24.23 11.48 23.7233 11.7533 23.31 12.1L22.51 10.66C23.0567 10.22 23.71 9.88667 24.47 9.66C25.2433 9.42 26.05 9.3 26.89 9.3C28.3433 9.3 29.4633 9.65333 30.25 10.36C31.0367 11.0667 31.43 12.1467 31.43 13.6V20H29.61ZM26.13 20.12C25.3433 20.12 24.65 19.9867 24.05 19.72C23.4633 19.4533 23.01 19.0867 22.69 18.62C22.37 18.14 22.21 17.6 22.21 17C22.21 16.4267 22.3433 15.9067 22.61 15.44C22.89 14.9733 23.3367 14.6 23.95 14.32C24.5767 14.04 25.4167 13.9 26.47 13.9H29.83V15.28H26.55C25.59 15.28 24.9433 15.44 24.61 15.76C24.2767 16.08 24.11 16.4667 24.11 16.92C24.11 17.44 24.3167 17.86 24.73 18.18C25.1433 18.4867 25.7167 18.64 26.45 18.64C27.17 18.64 27.7967 18.48 28.33 18.16C28.8767 17.84 29.27 17.3733 29.51 16.76L29.89 18.08C29.6367 18.7067 29.19 19.2067 28.55 19.58C27.91 19.94 27.1033 20.12 26.13 20.12ZM34.8873 20V9.4H39.8073C41.0473 9.4 42.0207 9.64 42.7273 10.12C43.4473 10.5867 43.8073 11.2533 43.8073 12.12C43.8073 12.9867 43.4673 13.66 42.7873 14.14C42.1207 14.6067 41.234 14.84 40.1273 14.84L40.4273 14.32C41.694 14.32 42.634 14.5533 43.2473 15.02C43.8607 15.4867 44.1673 16.1733 44.1673 17.08C44.1673 18 43.8207 18.72 43.1273 19.24C42.4473 19.7467 41.4007 20 39.9873 20H34.8873ZM36.7673 18.52H39.8473C40.6473 18.52 41.2473 18.4 41.6473 18.16C42.0473 17.9067 42.2473 17.5067 42.2473 16.96C42.2473 16.4 42.0607 15.9933 41.6873 15.74C41.3273 15.4733 40.754 15.34 39.9673 15.34H36.7673V18.52ZM36.7673 13.96H39.6473C40.3807 13.96 40.934 13.8267 41.3073 13.56C41.694 13.28 41.8873 12.8933 41.8873 12.4C41.8873 11.8933 41.694 11.5133 41.3073 11.26C40.934 11.0067 40.3807 10.88 39.6473 10.88H36.7673V13.96ZM47.1725 20V9.4H49.0925V13.9H55.1325V9.4H57.0525V20H55.1325V15.56H49.0925V20H47.1725ZM67.2858 20V17.76L67.1858 17.34V13.52C67.1858 12.7067 66.9458 12.08 66.4658 11.64C65.9991 11.1867 65.2924 10.96 64.3458 10.96C63.7191 10.96 63.1058 11.0667 62.5058 11.28C61.9058 11.48 61.3991 11.7533 60.9858 12.1L60.1858 10.66C60.7324 10.22 61.3858 9.88667 62.1458 9.66C62.9191 9.42 63.7258 9.3 64.5658 9.3C66.0191 9.3 67.1391 9.65333 67.9258 10.36C68.7124 11.0667 69.1058 12.1467 69.1058 13.6V20H67.2858ZM63.8058 20.12C63.0191 20.12 62.3258 19.9867 61.7258 19.72C61.1391 19.4533 60.6858 19.0867 60.3658 18.62C60.0458 18.14 59.8858 17.6 59.8858 17C59.8858 16.4267 60.0191 15.9067 60.2858 15.44C60.5658 14.9733 61.0124 14.6 61.6258 14.32C62.2524 14.04 63.0924 13.9 64.1458 13.9H67.5058V15.28H64.2258C63.2658 15.28 62.6191 15.44 62.2858 15.76C61.9524 16.08 61.7858 16.4667 61.7858 16.92C61.7858 17.44 61.9924 17.86 62.4058 18.18C62.8191 18.4867 63.3924 18.64 64.1258 18.64C64.8458 18.64 65.4724 18.48 66.0058 18.16C66.5524 17.84 66.9458 17.3733 67.1858 16.76L67.5658 18.08C67.3124 18.7067 66.8658 19.2067 66.2258 19.58C65.5858 19.94 64.7791 20.12 63.8058 20.12ZM79.3431 20V16.28L79.6431 16.64H76.2631C74.8498 16.64 73.7431 16.34 72.9431 15.74C72.1565 15.14 71.7631 14.2667 71.7631 13.12C71.7631 11.8933 72.1831 10.9667 73.0231 10.34C73.8765 9.71333 75.0098 9.4 76.4231 9.4H81.0631V20H79.3431ZM71.6631 20L74.5431 15.94H76.5231L73.7231 20H71.6631ZM79.3431 15.68V10.54L79.6431 11.08H76.4831C75.6031 11.08 74.9231 11.2467 74.4431 11.58C73.9631 11.9 73.7231 12.4333 73.7231 13.18C73.7231 14.5667 74.6165 15.26 76.4031 15.26H79.6431L79.3431 15.68Z" fill="#FCF9FF"/>
<path d="M8.48 68.16C7.41333 68.16 6.42 67.98 5.5 67.62C4.59333 67.26 3.80667 66.76 3.14 66.12C2.47333 65.4667 1.95333 64.7067 1.58 63.84C1.20667 62.9733 1.02 62.0267 1.02 61C1.02 59.9733 1.20667 59.0267 1.58 58.16C1.95333 57.2933 2.47333 56.54 3.14 55.9C3.80667 55.2467 4.59333 54.74 5.5 54.38C6.40667 54.02 7.4 53.84 8.48 53.84C9.54667 53.84 10.5267 54.02 11.42 54.38C12.3267 54.7267 13.1133 55.2267 13.78 55.88C14.46 56.52 14.98 57.2733 15.34 58.14C15.7133 59.0067 15.9 59.96 15.9 61C15.9 62.04 15.7133 62.9933 15.34 63.86C14.98 64.7267 14.46 65.4867 13.78 66.14C13.1133 66.78 12.3267 67.28 11.42 67.64C10.5267 67.9867 9.54667 68.16 8.48 68.16ZM8.48 66.38C9.25333 66.38 9.96667 66.2467 10.62 65.98C11.2867 65.7133 11.86 65.34 12.34 64.86C12.8333 64.3667 13.2133 63.7933 13.48 63.14C13.76 62.4867 13.9 61.7733 13.9 61C13.9 60.2267 13.76 59.5133 13.48 58.86C13.2133 58.2067 12.8333 57.64 12.34 57.16C11.86 56.6667 11.2867 56.2867 10.62 56.02C9.96667 55.7533 9.25333 55.62 8.48 55.62C7.69333 55.62 6.96667 55.7533 6.3 56.02C5.64667 56.2867 5.07333 56.6667 4.58 57.16C4.08667 57.64 3.7 58.2067 3.42 58.86C3.15333 59.5133 3.02 60.2267 3.02 61C3.02 61.7733 3.15333 62.4867 3.42 63.14C3.7 63.7933 4.08667 64.3667 4.58 64.86C5.07333 65.34 5.64667 65.7133 6.3 65.98C6.96667 66.2467 7.69333 66.38 8.48 66.38ZM24.1842 68V57.4H26.1042V61.9H32.1442V57.4H34.0642V68H32.1442V63.56H26.1042V68H24.1842ZM44.2975 68V65.76L44.1975 65.34V61.52C44.1975 60.7067 43.9575 60.08 43.4775 59.64C43.0108 59.1867 42.3042 58.96 41.3575 58.96C40.7308 58.96 40.1175 59.0667 39.5175 59.28C38.9175 59.48 38.4108 59.7533 37.9975 60.1L37.1975 58.66C37.7442 58.22 38.3975 57.8867 39.1575 57.66C39.9308 57.42 40.7375 57.3 41.5775 57.3C43.0308 57.3 44.1508 57.6533 44.9375 58.36C45.7242 59.0667 46.1175 60.1467 46.1175 61.6V68H44.2975ZM40.8175 68.12C40.0308 68.12 39.3375 67.9867 38.7375 67.72C38.1508 67.4533 37.6975 67.0867 37.3775 66.62C37.0575 66.14 36.8975 65.6 36.8975 65C36.8975 64.4267 37.0308 63.9067 37.2975 63.44C37.5775 62.9733 38.0242 62.6 38.6375 62.32C39.2642 62.04 40.1042 61.9 41.1575 61.9H44.5175V63.28H41.2375C40.2775 63.28 39.6308 63.44 39.2975 63.76C38.9642 64.08 38.7975 64.4667 38.7975 64.92C38.7975 65.44 39.0042 65.86 39.4175 66.18C39.8308 66.4867 40.4042 66.64 41.1375 66.64C41.8575 66.64 42.4842 66.48 43.0175 66.16C43.5642 65.84 43.9575 65.3733 44.1975 64.76L44.5775 66.08C44.3242 66.7067 43.8775 67.2067 43.2375 67.58C42.5975 67.94 41.7908 68.12 40.8175 68.12ZM54.1948 68.12C53.1148 68.12 52.1482 67.8867 51.2948 67.42C50.4548 66.9533 49.7948 66.3133 49.3148 65.5C48.8348 64.6867 48.5948 63.7533 48.5948 62.7C48.5948 61.6467 48.8348 60.7133 49.3148 59.9C49.7948 59.0867 50.4548 58.4533 51.2948 58C52.1482 57.5333 53.1148 57.3 54.1948 57.3C55.1548 57.3 56.0082 57.4933 56.7548 57.88C57.5148 58.2533 58.1015 58.8133 58.5148 59.56L57.0548 60.5C56.7082 59.98 56.2815 59.6 55.7748 59.36C55.2815 59.1067 54.7482 58.98 54.1748 58.98C53.4815 58.98 52.8615 59.1333 52.3148 59.44C51.7682 59.7467 51.3348 60.18 51.0148 60.74C50.6948 61.2867 50.5348 61.94 50.5348 62.7C50.5348 63.46 50.6948 64.12 51.0148 64.68C51.3348 65.24 51.7682 65.6733 52.3148 65.98C52.8615 66.2867 53.4815 66.44 54.1748 66.44C54.7482 66.44 55.2815 66.32 55.7748 66.08C56.2815 65.8267 56.7082 65.44 57.0548 64.92L58.5148 65.84C58.1015 66.5733 57.5148 67.14 56.7548 67.54C56.0082 67.9267 55.1548 68.12 54.1948 68.12Z" fill="#FCF9FF"/>
<path d="M2.18 116V102H14.24V116H12.28V103.22L12.76 103.74H3.66L4.16 103.22V116H2.18ZM23.9058 116.12C23.0258 116.12 22.2191 115.92 21.4858 115.52C20.7658 115.107 20.1858 114.5 19.7458 113.7C19.3191 112.9 19.1058 111.9 19.1058 110.7C19.1058 109.5 19.3124 108.5 19.7258 107.7C20.1524 106.9 20.7258 106.3 21.4458 105.9C22.1791 105.5 22.9991 105.3 23.9058 105.3C24.9458 105.3 25.8658 105.527 26.6658 105.98C27.4658 106.433 28.0991 107.067 28.5658 107.88C29.0324 108.68 29.2658 109.62 29.2658 110.7C29.2658 111.78 29.0324 112.727 28.5658 113.54C28.0991 114.353 27.4658 114.987 26.6658 115.44C25.8658 115.893 24.9458 116.12 23.9058 116.12ZM18.2858 119.88V105.4H20.1258V108.26L20.0058 110.72L20.2058 113.18V119.88H18.2858ZM23.7458 114.44C24.4258 114.44 25.0324 114.287 25.5658 113.98C26.1124 113.673 26.5391 113.24 26.8458 112.68C27.1658 112.107 27.3258 111.447 27.3258 110.7C27.3258 109.94 27.1658 109.287 26.8458 108.74C26.5391 108.18 26.1124 107.747 25.5658 107.44C25.0324 107.133 24.4258 106.98 23.7458 106.98C23.0791 106.98 22.4724 107.133 21.9258 107.44C21.3924 107.747 20.9658 108.18 20.6458 108.74C20.3391 109.287 20.1858 109.94 20.1858 110.7C20.1858 111.447 20.3391 112.107 20.6458 112.68C20.9658 113.24 21.3924 113.673 21.9258 113.98C22.4724 114.287 23.0791 114.44 23.7458 114.44ZM36.7753 116.12C35.642 116.12 34.642 115.887 33.7753 115.42C32.922 114.953 32.2553 114.313 31.7753 113.5C31.3086 112.687 31.0753 111.753 31.0753 110.7C31.0753 109.647 31.302 108.713 31.7553 107.9C32.222 107.087 32.8553 106.453 33.6553 106C34.4686 105.533 35.382 105.3 36.3953 105.3C37.422 105.3 38.3286 105.527 39.1153 105.98C39.902 106.433 40.5153 107.073 40.9553 107.9C41.4086 108.713 41.6353 109.667 41.6353 110.76C41.6353 110.84 41.6286 110.933 41.6153 111.04C41.6153 111.147 41.6086 111.247 41.5953 111.34H32.5753V109.96H40.5953L39.8153 110.44C39.8286 109.76 39.6886 109.153 39.3953 108.62C39.102 108.087 38.6953 107.673 38.1753 107.38C37.6686 107.073 37.0753 106.92 36.3953 106.92C35.7286 106.92 35.1353 107.073 34.6153 107.38C34.0953 107.673 33.6886 108.093 33.3953 108.64C33.102 109.173 32.9553 109.787 32.9553 110.48V110.8C32.9553 111.507 33.1153 112.14 33.4353 112.7C33.7686 113.247 34.2286 113.673 34.8153 113.98C35.402 114.287 36.0753 114.44 36.8353 114.44C37.462 114.44 38.0286 114.333 38.5353 114.12C39.0553 113.907 39.5086 113.587 39.8953 113.16L40.9553 114.4C40.4753 114.96 39.8753 115.387 39.1553 115.68C38.4486 115.973 37.6553 116.12 36.7753 116.12ZM44.6139 116V105.4H46.5339V113.12L53.0339 105.4H54.7739V116H52.8539V108.28L46.3739 116H44.6139ZM58.5006 116V105.4H60.4806L65.0406 113.24H64.2406L68.9206 105.4H70.7206V116H68.9806V107.56L69.3006 107.74L65.0206 114.8H64.1806L59.8806 107.6L60.2606 107.52V116H58.5006ZM74.9977 120C74.491 120 73.9977 119.913 73.5177 119.74C73.0377 119.58 72.6243 119.34 72.2777 119.02L73.0977 117.58C73.3643 117.833 73.6577 118.027 73.9777 118.16C74.2977 118.293 74.6377 118.36 74.9977 118.36C75.4643 118.36 75.851 118.24 76.1577 118C76.4643 117.76 76.751 117.333 77.0177 116.72L77.6777 115.26L77.8777 115.02L82.0377 105.4H83.9177L78.7777 117.06C78.471 117.807 78.1243 118.393 77.7377 118.82C77.3643 119.247 76.951 119.547 76.4977 119.72C76.0443 119.907 75.5443 120 74.9977 120ZM77.5177 116.34L72.6777 105.4H74.6777L78.7977 114.84L77.5177 116.34ZM92.9234 114.32L92.4834 114.82V105.4H94.4034V114.82L93.9234 114.32H99.5234L99.0634 114.82V105.4H100.983V116H85.8834V105.4H87.8034V114.82L87.3434 114.32H92.9234ZM100.743 118.26V115.5L101.203 116H98.9634V114.32H102.543V118.26H100.743ZM109.432 116.12C108.298 116.12 107.298 115.887 106.432 115.42C105.578 114.953 104.912 114.313 104.432 113.5C103.965 112.687 103.732 111.753 103.732 110.7C103.732 109.647 103.958 108.713 104.412 107.9C104.878 107.087 105.512 106.453 106.312 106C107.125 105.533 108.038 105.3 109.052 105.3C110.078 105.3 110.985 105.527 111.772 105.98C112.558 106.433 113.172 107.073 113.612 107.9C114.065 108.713 114.292 109.667 114.292 110.76C114.292 110.84 114.285 110.933 114.272 111.04C114.272 111.147 114.265 111.247 114.252 111.34H105.232V109.96H113.252L112.472 110.44C112.485 109.76 112.345 109.153 112.052 108.62C111.758 108.087 111.352 107.673 110.832 107.38C110.325 107.073 109.732 106.92 109.052 106.92C108.385 106.92 107.792 107.073 107.272 107.38C106.752 107.673 106.345 108.093 106.052 108.64C105.758 109.173 105.612 109.787 105.612 110.48V110.8C105.612 111.507 105.772 112.14 106.092 112.7C106.425 113.247 106.885 113.673 107.472 113.98C108.058 114.287 108.732 114.44 109.492 114.44C110.118 114.44 110.685 114.333 111.192 114.12C111.712 113.907 112.165 113.587 112.552 113.16L113.612 114.4C113.132 114.96 112.532 115.387 111.812 115.68C111.105 115.973 110.312 116.12 109.432 116.12ZM121.89 116.12C120.81 116.12 119.843 115.887 118.99 115.42C118.15 114.953 117.49 114.313 117.01 113.5C116.53 112.687 116.29 111.753 116.29 110.7C116.29 109.647 116.53 108.713 117.01 107.9C117.49 107.087 118.15 106.453 118.99 106C119.843 105.533 120.81 105.3 121.89 105.3C122.85 105.3 123.703 105.493 124.45 105.88C125.21 106.253 125.797 106.813 126.21 107.56L124.75 108.5C124.403 107.98 123.977 107.6 123.47 107.36C122.977 107.107 122.443 106.98 121.87 106.98C121.177 106.98 120.557 107.133 120.01 107.44C119.463 107.747 119.03 108.18 118.71 108.74C118.39 109.287 118.23 109.94 118.23 110.7C118.23 111.46 118.39 112.12 118.71 112.68C119.03 113.24 119.463 113.673 120.01 113.98C120.557 114.287 121.177 114.44 121.87 114.44C122.443 114.44 122.977 114.32 123.47 114.08C123.977 113.827 124.403 113.44 124.75 112.92L126.21 113.84C125.797 114.573 125.21 115.14 124.45 115.54C123.703 115.927 122.85 116.12 121.89 116.12ZM130.659 116V106.58L131.139 107.08H126.779V105.4H136.459V107.08H132.119L132.579 106.58V116H130.659ZM138.423 116V105.4H143.343C144.583 105.4 145.556 105.64 146.263 106.12C146.983 106.587 147.343 107.253 147.343 108.12C147.343 108.987 147.003 109.66 146.323 110.14C145.656 110.607 144.769 110.84 143.663 110.84L143.963 110.32C145.229 110.32 146.169 110.553 146.783 111.02C147.396 111.487 147.703 112.173 147.703 113.08C147.703 114 147.356 114.72 146.662 115.24C145.983 115.747 144.936 116 143.523 116H138.423ZM140.303 114.52H143.383C144.183 114.52 144.783 114.4 145.183 114.16C145.583 113.907 145.783 113.507 145.783 112.96C145.783 112.4 145.596 111.993 145.223 111.74C144.863 111.473 144.289 111.34 143.503 111.34H140.303V114.52ZM140.303 109.96H143.183C143.916 109.96 144.469 109.827 144.843 109.56C145.229 109.28 145.423 108.893 145.423 108.4C145.423 107.893 145.229 107.513 144.843 107.26C144.469 107.007 143.916 106.88 143.183 106.88H140.303V109.96ZM157.208 116V113.76L157.108 113.34V109.52C157.108 108.707 156.868 108.08 156.388 107.64C155.921 107.187 155.214 106.96 154.268 106.96C153.641 106.96 153.028 107.067 152.428 107.28C151.828 107.48 151.321 107.753 150.908 108.1L150.108 106.66C150.654 106.22 151.308 105.887 152.068 105.66C152.841 105.42 153.648 105.3 154.488 105.3C155.941 105.3 157.061 105.653 157.848 106.36C158.634 107.067 159.028 108.147 159.028 109.6V116H157.208ZM153.728 116.12C152.941 116.12 152.248 115.987 151.648 115.72C151.061 115.453 150.608 115.087 150.288 114.62C149.968 114.14 149.808 113.6 149.808 113C149.808 112.427 149.941 111.907 150.208 111.44C150.488 110.973 150.934 110.6 151.548 110.32C152.174 110.04 153.014 109.9 154.068 109.9H157.428V111.28H154.148C153.188 111.28 152.541 111.44 152.208 111.76C151.874 112.08 151.708 112.467 151.708 112.92C151.708 113.44 151.914 113.86 152.328 114.18C152.741 114.487 153.314 114.64 154.048 114.64C154.768 114.64 155.394 114.48 155.928 114.16C156.474 113.84 156.868 113.373 157.108 112.76L157.488 114.08C157.234 114.707 156.788 115.207 156.148 115.58C155.508 115.94 154.701 116.12 153.728 116.12Z" fill="#FCF9FF"/>
<path d="M2.18 164V150H14.24V164H12.28V151.22L12.76 151.74H3.66L4.16 151.22V164H2.18ZM24.7858 164V161.76L24.6858 161.34V157.52C24.6858 156.707 24.4458 156.08 23.9658 155.64C23.4991 155.187 22.7924 154.96 21.8458 154.96C21.2191 154.96 20.6058 155.067 20.0058 155.28C19.4058 155.48 18.8991 155.753 18.4858 156.1L17.6858 154.66C18.2324 154.22 18.8858 153.887 19.6458 153.66C20.4191 153.42 21.2258 153.3 22.0658 153.3C23.5191 153.3 24.6391 153.653 25.4258 154.36C26.2124 155.067 26.6058 156.147 26.6058 157.6V164H24.7858ZM21.3058 164.12C20.5191 164.12 19.8258 163.987 19.2258 163.72C18.6391 163.453 18.1858 163.087 17.8658 162.62C17.5458 162.14 17.3858 161.6 17.3858 161C17.3858 160.427 17.5191 159.907 17.7858 159.44C18.0658 158.973 18.5124 158.6 19.1258 158.32C19.7524 158.04 20.5924 157.9 21.6458 157.9H25.0058V159.28H21.7258C20.7658 159.28 20.1191 159.44 19.7858 159.76C19.4524 160.08 19.2858 160.467 19.2858 160.92C19.2858 161.44 19.4924 161.86 19.9058 162.18C20.3191 162.487 20.8924 162.64 21.6258 162.64C22.3458 162.64 22.9724 162.48 23.5058 162.16C24.0524 161.84 24.4458 161.373 24.6858 160.76L25.0658 162.08C24.8124 162.707 24.3658 163.207 23.7258 163.58C23.0858 163.94 22.2791 164.12 21.3058 164.12ZM35.6831 164.12C34.8031 164.12 33.9965 163.92 33.2631 163.52C32.5431 163.107 31.9631 162.5 31.5231 161.7C31.0965 160.9 30.8831 159.9 30.8831 158.7C30.8831 157.5 31.0898 156.5 31.5031 155.7C31.9298 154.9 32.5031 154.3 33.2231 153.9C33.9565 153.5 34.7765 153.3 35.6831 153.3C36.7231 153.3 37.6431 153.527 38.4431 153.98C39.2431 154.433 39.8765 155.067 40.3431 155.88C40.8098 156.68 41.0431 157.62 41.0431 158.7C41.0431 159.78 40.8098 160.727 40.3431 161.54C39.8765 162.353 39.2431 162.987 38.4431 163.44C37.6431 163.893 36.7231 164.12 35.6831 164.12ZM30.0631 167.88V153.4H31.9031V156.26L31.7831 158.72L31.9831 161.18V167.88H30.0631ZM35.5231 162.44C36.2031 162.44 36.8098 162.287 37.3431 161.98C37.8898 161.673 38.3165 161.24 38.6231 160.68C38.9431 160.107 39.1031 159.447 39.1031 158.7C39.1031 157.94 38.9431 157.287 38.6231 156.74C38.3165 156.18 37.8898 155.747 37.3431 155.44C36.8098 155.133 36.2031 154.98 35.5231 154.98C34.8565 154.98 34.2498 155.133 33.7031 155.44C33.1698 155.747 32.7431 156.18 32.4231 156.74C32.1165 157.287 31.9631 157.94 31.9631 158.7C31.9631 159.447 32.1165 160.107 32.4231 160.68C32.7431 161.24 33.1698 161.673 33.7031 161.98C34.2498 162.287 34.8565 162.44 35.5231 162.44ZM45.542 164V154.58L46.022 155.08H41.662V153.4H51.342V155.08H47.002L47.462 154.58V164H45.542ZM53.3053 164V153.4H55.2253V157.9H61.2653V153.4H63.1853V164H61.2653V159.56H55.2253V164H53.3053ZM71.6386 164.12C70.5053 164.12 69.5053 163.887 68.6386 163.42C67.7853 162.953 67.1186 162.313 66.6386 161.5C66.1719 160.687 65.9386 159.753 65.9386 158.7C65.9386 157.647 66.1653 156.713 66.6186 155.9C67.0853 155.087 67.7186 154.453 68.5186 154C69.3319 153.533 70.2453 153.3 71.2586 153.3C72.2853 153.3 73.1919 153.527 73.9786 153.98C74.7653 154.433 75.3786 155.073 75.8186 155.9C76.2719 156.713 76.4986 157.667 76.4986 158.76C76.4986 158.84 76.4919 158.933 76.4786 159.04C76.4786 159.147 76.4719 159.247 76.4586 159.34H67.4386V157.96H75.4586L74.6786 158.44C74.6919 157.76 74.5519 157.153 74.2586 156.62C73.9653 156.087 73.5586 155.673 73.0386 155.38C72.5319 155.073 71.9386 154.92 71.2586 154.92C70.5919 154.92 69.9986 155.073 69.4786 155.38C68.9586 155.673 68.5519 156.093 68.2586 156.64C67.9653 157.173 67.8186 157.787 67.8186 158.48V158.8C67.8186 159.507 67.9786 160.14 68.2986 160.7C68.6319 161.247 69.0919 161.673 69.6786 161.98C70.2653 162.287 70.9386 162.44 71.6986 162.44C72.3253 162.44 72.8919 162.333 73.3986 162.12C73.9186 161.907 74.3719 161.587 74.7586 161.16L75.8186 162.4C75.3386 162.96 74.7386 163.387 74.0186 163.68C73.3119 163.973 72.5186 164.12 71.6386 164.12ZM73.0986 151.52C72.8186 151.52 72.5786 151.427 72.3786 151.24C72.1786 151.04 72.0786 150.793 72.0786 150.5C72.0786 150.193 72.1786 149.947 72.3786 149.76C72.5786 149.56 72.8186 149.46 73.0986 149.46C73.3786 149.46 73.6186 149.56 73.8186 149.76C74.0186 149.947 74.1186 150.193 74.1186 150.5C74.1186 150.793 74.0186 151.04 73.8186 151.24C73.6186 151.427 73.3786 151.52 73.0986 151.52ZM69.3786 151.52C69.0986 151.52 68.8586 151.427 68.6586 151.24C68.4586 151.04 68.3586 150.793 68.3586 150.5C68.3586 150.193 68.4586 149.947 68.6586 149.76C68.8586 149.56 69.0986 149.46 69.3786 149.46C69.6586 149.46 69.8986 149.56 70.0986 149.76C70.2986 149.947 70.3986 150.193 70.3986 150.5C70.3986 150.793 70.2986 151.04 70.0986 151.24C69.8986 151.427 69.6586 151.52 69.3786 151.52ZM85.0972 164.12C84.2172 164.12 83.4105 163.92 82.6772 163.52C81.9572 163.107 81.3772 162.5 80.9372 161.7C80.5105 160.9 80.2972 159.9 80.2972 158.7C80.2972 157.5 80.5039 156.5 80.9172 155.7C81.3439 154.9 81.9172 154.3 82.6372 153.9C83.3705 153.5 84.1905 153.3 85.0972 153.3C86.1372 153.3 87.0572 153.527 87.8572 153.98C88.6572 154.433 89.2905 155.067 89.7572 155.88C90.2239 156.68 90.4572 157.62 90.4572 158.7C90.4572 159.78 90.2239 160.727 89.7572 161.54C89.2905 162.353 88.6572 162.987 87.8572 163.44C87.0572 163.893 86.1372 164.12 85.0972 164.12ZM79.4772 167.88V153.4H81.3172V156.26L81.1972 158.72L81.3972 161.18V167.88H79.4772ZM84.9372 162.44C85.6172 162.44 86.2239 162.287 86.7572 161.98C87.3039 161.673 87.7305 161.24 88.0372 160.68C88.3572 160.107 88.5172 159.447 88.5172 158.7C88.5172 157.94 88.3572 157.287 88.0372 156.74C87.7305 156.18 87.3039 155.747 86.7572 155.44C86.2239 155.133 85.6172 154.98 84.9372 154.98C84.2705 154.98 83.6639 155.133 83.1172 155.44C82.5839 155.747 82.1572 156.18 81.8372 156.74C81.5305 157.287 81.3772 157.94 81.3772 158.7C81.3772 159.447 81.5305 160.107 81.8372 160.68C82.1572 161.24 82.5839 161.673 83.1172 161.98C83.6639 162.287 84.2705 162.44 84.9372 162.44ZM103.727 164V153.4H105.647V164H103.727ZM98.0267 157C99.3734 157.013 100.393 157.32 101.087 157.92C101.793 158.52 102.147 159.367 102.147 160.46C102.147 161.607 101.76 162.493 100.987 163.12C100.227 163.733 99.1334 164.033 97.7067 164.02L93.2467 164V153.4H95.1667V156.98L98.0267 157ZM97.5667 162.56C98.4201 162.573 99.0734 162.4 99.5267 162.04C99.9801 161.68 100.207 161.147 100.207 160.44C100.207 159.747 99.9801 159.24 99.5267 158.92C99.0867 158.6 98.4334 158.433 97.5667 158.42L95.1667 158.38V162.54L97.5667 162.56Z" fill="#FCF9FF"/>
</svg>
