<svg width="20" height="20" viewBox="0 0 20 20" fill="none" xmlns="http://www.w3.org/2000/svg">
<g clip-path="url(#clip0_2_287)">
<path d="M19.5832 5.4224C19.47 5.01843 19.2494 4.65269 18.9449 4.36407C18.6318 4.06657 18.2481 3.85376 17.8299 3.74573C16.2649 3.33323 9.9949 3.33323 9.9949 3.33323C7.38101 3.30349 4.76776 3.4343 2.1699 3.7249C1.75173 3.84091 1.36871 4.05847 1.0549 4.35823C0.746571 4.6549 0.523237 5.02073 0.406571 5.42157C0.126315 6.93135 -0.00985268 8.46435 -9.60322e-05 9.9999C-0.010096 11.5341 0.125737 13.0666 0.406571 14.5782C0.520737 14.9774 0.743237 15.3416 1.0524 15.6357C1.36157 15.9299 1.74657 16.1424 2.1699 16.2549C3.75574 16.6666 9.9949 16.6666 9.9949 16.6666C12.6121 16.6963 15.2287 16.5655 17.8299 16.2749C18.2481 16.1669 18.6318 15.9541 18.9449 15.6566C19.2493 15.368 19.4696 15.0022 19.5824 14.5982C19.87 13.089 20.0098 11.5554 19.9999 10.0191C20.0215 8.47624 19.8819 6.93537 19.5832 5.42157V5.4224ZM8.00157 12.8532V7.1474L13.2182 10.0007L8.00157 12.8532Z" fill="#FCF9FF"/>
</g>
<defs>
<clipPath id="clip0_2_287">
<rect width="20" height="20" fill="white"/>
</clipPath>
</defs>
</svg>
