<svg width="18" height="18" viewBox="0 0 18 18" fill="none" xmlns="http://www.w3.org/2000/svg">
<path d="M17.7323 3.70269C17.106 3.98019 16.4333 4.16769 15.726 4.25244C16.4558 3.81578 17.0017 3.12854 17.262 2.31894C16.5764 2.72618 15.826 3.01283 15.0435 3.16644C14.5173 2.60458 13.8203 2.23218 13.0607 2.10704C12.3012 1.9819 11.5216 2.11103 10.8429 2.47438C10.1643 2.83772 9.62458 3.41496 9.30762 4.11646C8.99065 4.81797 8.91415 5.6045 9.09 6.35394C7.70077 6.28418 6.34172 5.9231 5.10107 5.29411C3.86042 4.66513 2.76588 3.78231 1.8885 2.70294C1.5885 3.22044 1.416 3.82044 1.416 4.45944C1.41567 5.03468 1.55733 5.60112 1.82841 6.10848C2.09949 6.61585 2.49162 7.04846 2.97 7.36794C2.41521 7.35028 1.87266 7.20037 1.3875 6.93069V6.97569C1.38745 7.78249 1.66653 8.56447 2.17739 9.18893C2.68825 9.8134 3.39943 10.2419 4.19025 10.4017C3.67559 10.541 3.136 10.5615 2.61225 10.4617C2.83537 11.1559 3.27 11.763 3.85528 12.1979C4.44056 12.6328 5.14719 12.8738 5.87625 12.8872C4.63863 13.8587 3.11017 14.3858 1.53675 14.3834C1.25804 14.3835 0.979558 14.3672 0.702751 14.3347C2.29986 15.3616 4.15901 15.9066 6.05775 15.9044C12.4853 15.9044 15.999 10.5809 15.999 5.96394C15.999 5.81394 15.9953 5.66244 15.9885 5.51244C16.672 5.01817 17.2619 4.40611 17.7308 3.70494L17.7323 3.70269Z" fill="#FCF9FF"/>
</svg>
