<svg width="149" height="20" viewBox="0 0 149 20" fill="none" xmlns="http://www.w3.org/2000/svg">
<path d="M13.05 17.5001C9.98797 17.4961 7.05249 16.278 4.8873 14.1128C2.72211 11.9476 1.50397 9.01212 1.5 5.95009C1.5 5.03509 1.86348 4.15757 2.51048 3.51057C3.15748 2.86357 4.035 2.50009 4.95 2.50009C5.14376 2.49861 5.33719 2.51619 5.5275 2.55259C5.71148 2.57981 5.89235 2.62503 6.0675 2.68759C6.19069 2.73081 6.30046 2.80544 6.38596 2.90409C6.47146 3.00274 6.52973 3.12201 6.555 3.25009L7.5825 7.75009C7.6102 7.87223 7.60686 7.99937 7.5728 8.1199C7.53874 8.24043 7.47503 8.3505 7.3875 8.44009C7.29 8.54509 7.2825 8.55259 6.36 9.03259C7.09875 10.6532 8.3949 11.9547 10.0125 12.7001C10.5 11.7701 10.5075 11.7626 10.6125 11.6651C10.7021 11.5776 10.8122 11.5138 10.9327 11.4798C11.0532 11.4457 11.1804 11.4424 11.3025 11.4701L15.8025 12.4976C15.9265 12.5264 16.0411 12.5862 16.1356 12.6715C16.23 12.7568 16.3012 12.8647 16.3425 12.9851C16.4058 13.1631 16.4535 13.3463 16.485 13.5326C16.5152 13.7211 16.5302 13.9117 16.53 14.1026C16.5162 15.0137 16.1425 15.8823 15.4905 16.5188C14.8385 17.1554 13.9612 17.5081 13.05 17.5001Z" fill="#FCF9FF"/>
<path d="M33.3555 9.66113V10.8506H26.5332V9.66113H33.3555ZM30.5801 6.75586V14.002H29.3154V6.75586H30.5801ZM44.6758 5.04688V5.75781L40.5537 15H39.2207L43.3359 6.08594H37.9492V5.04688H44.6758ZM49.6797 11.0215V10.9531C49.6797 9.95964 49.7913 9.06185 50.0146 8.25977C50.238 7.45312 50.5228 6.74674 50.8691 6.14062C51.2155 5.53451 51.5801 5.0332 51.9629 4.63672C52.3457 4.23568 52.6989 3.94629 53.0225 3.76855L53.2891 4.60254C53.0202 4.80762 52.7467 5.09017 52.4688 5.4502C52.1953 5.81022 51.9424 6.25228 51.71 6.77637C51.4821 7.30046 51.2975 7.90885 51.1562 8.60156C51.015 9.29427 50.9443 10.0736 50.9443 10.9395V11.0352C50.9443 11.901 51.015 12.6826 51.1562 13.3799C51.2975 14.0726 51.4821 14.6833 51.71 15.2119C51.9424 15.7406 52.1953 16.1895 52.4688 16.5586C52.7467 16.9323 53.0202 17.2285 53.2891 17.4473L53.0225 18.2129C52.6989 18.0352 52.3457 17.7458 51.9629 17.3447C51.5801 16.9482 51.2155 16.4469 50.8691 15.8408C50.5228 15.2393 50.238 14.5352 50.0146 13.7285C49.7913 12.9219 49.6797 12.0195 49.6797 11.0215ZM60.665 12.3066C60.665 12.9128 60.5238 13.4277 60.2412 13.8516C59.9632 14.2708 59.585 14.5898 59.1064 14.8086C58.6325 15.0273 58.097 15.1367 57.5 15.1367C56.903 15.1367 56.3652 15.0273 55.8867 14.8086C55.4082 14.5898 55.0299 14.2708 54.752 13.8516C54.474 13.4277 54.335 12.9128 54.335 12.3066C54.335 11.9102 54.4102 11.5479 54.5605 11.2197C54.7155 10.887 54.932 10.5977 55.21 10.3516C55.4925 10.1055 55.8252 9.91634 56.208 9.78418C56.5954 9.64746 57.0215 9.5791 57.4863 9.5791C58.097 9.5791 58.6416 9.69759 59.1201 9.93457C59.5986 10.167 59.9746 10.4883 60.248 10.8984C60.526 11.3086 60.665 11.778 60.665 12.3066ZM59.3936 12.2793C59.3936 11.9102 59.3138 11.5843 59.1543 11.3018C58.9948 11.0146 58.7715 10.7913 58.4844 10.6318C58.1973 10.4723 57.8646 10.3926 57.4863 10.3926C57.099 10.3926 56.764 10.4723 56.4814 10.6318C56.2035 10.7913 55.987 11.0146 55.832 11.3018C55.6771 11.5843 55.5996 11.9102 55.5996 12.2793C55.5996 12.6621 55.6748 12.9902 55.8252 13.2637C55.9801 13.5326 56.1989 13.7399 56.4814 13.8857C56.7686 14.027 57.1081 14.0977 57.5 14.0977C57.8919 14.0977 58.2292 14.027 58.5117 13.8857C58.7943 13.7399 59.0107 13.5326 59.1611 13.2637C59.3161 12.9902 59.3936 12.6621 59.3936 12.2793ZM60.4326 7.6377C60.4326 8.12077 60.305 8.55599 60.0498 8.94336C59.7946 9.33073 59.446 9.63607 59.0039 9.85938C58.5618 10.0827 58.0605 10.1943 57.5 10.1943C56.9303 10.1943 56.4222 10.0827 55.9756 9.85938C55.5335 9.63607 55.1872 9.33073 54.9365 8.94336C54.6859 8.55599 54.5605 8.12077 54.5605 7.6377C54.5605 7.05892 54.6859 6.56673 54.9365 6.16113C55.1917 5.75553 55.5404 5.44564 55.9824 5.23145C56.4245 5.01725 56.9281 4.91016 57.4932 4.91016C58.0628 4.91016 58.5687 5.01725 59.0107 5.23145C59.4528 5.44564 59.7992 5.75553 60.0498 6.16113C60.305 6.56673 60.4326 7.05892 60.4326 7.6377ZM59.168 7.6582C59.168 7.32552 59.0973 7.03158 58.9561 6.77637C58.8148 6.52116 58.6188 6.32064 58.3682 6.1748C58.1175 6.02441 57.8258 5.94922 57.4932 5.94922C57.1605 5.94922 56.8688 6.01986 56.6182 6.16113C56.3721 6.29785 56.1784 6.49382 56.0371 6.74902C55.9004 7.00423 55.832 7.30729 55.832 7.6582C55.832 8 55.9004 8.2985 56.0371 8.55371C56.1784 8.80892 56.3743 9.00716 56.625 9.14844C56.8757 9.28971 57.1673 9.36035 57.5 9.36035C57.8327 9.36035 58.1221 9.28971 58.3682 9.14844C58.6188 9.00716 58.8148 8.80892 58.9561 8.55371C59.0973 8.2985 59.168 8 59.168 7.6582ZM68.5127 9.23047V10.748C68.5127 11.5638 68.4398 12.252 68.2939 12.8125C68.1481 13.373 67.9385 13.8242 67.665 14.166C67.3916 14.5078 67.0612 14.7562 66.6738 14.9111C66.291 15.0615 65.8581 15.1367 65.375 15.1367C64.9922 15.1367 64.639 15.0889 64.3154 14.9932C63.9919 14.8975 63.7002 14.7448 63.4404 14.5352C63.1852 14.321 62.9665 14.043 62.7842 13.7012C62.6019 13.3594 62.4629 12.9447 62.3672 12.457C62.2715 11.9694 62.2236 11.3997 62.2236 10.748V9.23047C62.2236 8.41471 62.2965 7.73112 62.4424 7.17969C62.5928 6.62826 62.8047 6.1862 63.0781 5.85352C63.3516 5.51628 63.6797 5.27474 64.0625 5.12891C64.4499 4.98307 64.8828 4.91016 65.3613 4.91016C65.7487 4.91016 66.1042 4.95801 66.4277 5.05371C66.7559 5.14486 67.0475 5.29297 67.3027 5.49805C67.5579 5.69857 67.7744 5.96745 67.9521 6.30469C68.1344 6.63737 68.2734 7.04525 68.3691 7.52832C68.4648 8.01139 68.5127 8.57878 68.5127 9.23047ZM67.2412 10.9531V9.01855C67.2412 8.57194 67.2139 8.18001 67.1592 7.84277C67.109 7.50098 67.0339 7.20931 66.9336 6.96777C66.8333 6.72624 66.7057 6.53027 66.5508 6.37988C66.4004 6.22949 66.2249 6.12012 66.0244 6.05176C65.8285 5.97884 65.6074 5.94238 65.3613 5.94238C65.0605 5.94238 64.7939 5.99935 64.5615 6.11328C64.3291 6.22266 64.1331 6.39811 63.9736 6.63965C63.8187 6.88118 63.7002 7.19792 63.6182 7.58984C63.5361 7.98177 63.4951 8.45801 63.4951 9.01855V10.9531C63.4951 11.3997 63.5202 11.7939 63.5703 12.1357C63.625 12.4775 63.7048 12.7738 63.8096 13.0244C63.9144 13.2705 64.042 13.4733 64.1924 13.6328C64.3428 13.7923 64.516 13.9108 64.7119 13.9883C64.9124 14.0612 65.1335 14.0977 65.375 14.0977C65.6849 14.0977 65.9561 14.0384 66.1885 13.9199C66.4209 13.8014 66.6146 13.6169 66.7695 13.3662C66.929 13.111 67.0475 12.7852 67.125 12.3887C67.2025 11.9876 67.2412 11.5091 67.2412 10.9531ZM76.3877 9.23047V10.748C76.3877 11.5638 76.3148 12.252 76.1689 12.8125C76.0231 13.373 75.8135 13.8242 75.54 14.166C75.2666 14.5078 74.9362 14.7562 74.5488 14.9111C74.166 15.0615 73.7331 15.1367 73.25 15.1367C72.8672 15.1367 72.514 15.0889 72.1904 14.9932C71.8669 14.8975 71.5752 14.7448 71.3154 14.5352C71.0602 14.321 70.8415 14.043 70.6592 13.7012C70.4769 13.3594 70.3379 12.9447 70.2422 12.457C70.1465 11.9694 70.0986 11.3997 70.0986 10.748V9.23047C70.0986 8.41471 70.1715 7.73112 70.3174 7.17969C70.4678 6.62826 70.6797 6.1862 70.9531 5.85352C71.2266 5.51628 71.5547 5.27474 71.9375 5.12891C72.3249 4.98307 72.7578 4.91016 73.2363 4.91016C73.6237 4.91016 73.9792 4.95801 74.3027 5.05371C74.6309 5.14486 74.9225 5.29297 75.1777 5.49805C75.4329 5.69857 75.6494 5.96745 75.8271 6.30469C76.0094 6.63737 76.1484 7.04525 76.2441 7.52832C76.3398 8.01139 76.3877 8.57878 76.3877 9.23047ZM75.1162 10.9531V9.01855C75.1162 8.57194 75.0889 8.18001 75.0342 7.84277C74.984 7.50098 74.9089 7.20931 74.8086 6.96777C74.7083 6.72624 74.5807 6.53027 74.4258 6.37988C74.2754 6.22949 74.0999 6.12012 73.8994 6.05176C73.7035 5.97884 73.4824 5.94238 73.2363 5.94238C72.9355 5.94238 72.6689 5.99935 72.4365 6.11328C72.2041 6.22266 72.0081 6.39811 71.8486 6.63965C71.6937 6.88118 71.5752 7.19792 71.4932 7.58984C71.4111 7.98177 71.3701 8.45801 71.3701 9.01855V10.9531C71.3701 11.3997 71.3952 11.7939 71.4453 12.1357C71.5 12.4775 71.5798 12.7738 71.6846 13.0244C71.7894 13.2705 71.917 13.4733 72.0674 13.6328C72.2178 13.7923 72.391 13.9108 72.5869 13.9883C72.7874 14.0612 73.0085 14.0977 73.25 14.0977C73.5599 14.0977 73.8311 14.0384 74.0635 13.9199C74.2959 13.8014 74.4896 13.6169 74.6445 13.3662C74.804 13.111 74.9225 12.7852 75 12.3887C75.0775 11.9876 75.1162 11.5091 75.1162 10.9531ZM81.0635 10.9531V11.0215C81.0635 12.0195 80.9518 12.9219 80.7285 13.7285C80.5052 14.5352 80.2204 15.2393 79.874 15.8408C79.5277 16.4469 79.1631 16.9482 78.7803 17.3447C78.3975 17.7458 78.0443 18.0352 77.7207 18.2129L77.4541 17.4473C77.723 17.2422 77.9941 16.9551 78.2676 16.5859C78.541 16.2214 78.7939 15.7702 79.0264 15.2324C79.2588 14.6992 79.4456 14.084 79.5869 13.3867C79.7282 12.6849 79.7988 11.901 79.7988 11.0352V10.9395C79.7988 10.0736 79.7236 9.29199 79.5732 8.59473C79.4229 7.8929 79.2269 7.27539 78.9854 6.74219C78.7484 6.20898 78.4932 5.76009 78.2197 5.39551C77.9508 5.02637 77.6956 4.74154 77.4541 4.54102L77.7207 3.76855C78.0443 3.94629 78.3975 4.23568 78.7803 4.63672C79.1631 5.0332 79.5277 5.53451 79.874 6.14062C80.2204 6.74674 80.5052 7.45312 80.7285 8.25977C80.9518 9.06185 81.0635 9.95964 81.0635 10.9531ZM92.6436 12.3066C92.6436 12.9128 92.5023 13.4277 92.2197 13.8516C91.9417 14.2708 91.5635 14.5898 91.085 14.8086C90.611 15.0273 90.0755 15.1367 89.4785 15.1367C88.8815 15.1367 88.3438 15.0273 87.8652 14.8086C87.3867 14.5898 87.0085 14.2708 86.7305 13.8516C86.4525 13.4277 86.3135 12.9128 86.3135 12.3066C86.3135 11.9102 86.3887 11.5479 86.5391 11.2197C86.694 10.887 86.9105 10.5977 87.1885 10.3516C87.471 10.1055 87.8037 9.91634 88.1865 9.78418C88.5739 9.64746 89 9.5791 89.4648 9.5791C90.0755 9.5791 90.6201 9.69759 91.0986 9.93457C91.5771 10.167 91.9531 10.4883 92.2266 10.8984C92.5046 11.3086 92.6436 11.778 92.6436 12.3066ZM91.3721 12.2793C91.3721 11.9102 91.2923 11.5843 91.1328 11.3018C90.9733 11.0146 90.75 10.7913 90.4629 10.6318C90.1758 10.4723 89.8431 10.3926 89.4648 10.3926C89.0775 10.3926 88.7425 10.4723 88.46 10.6318C88.182 10.7913 87.9655 11.0146 87.8105 11.3018C87.6556 11.5843 87.5781 11.9102 87.5781 12.2793C87.5781 12.6621 87.6533 12.9902 87.8037 13.2637C87.9587 13.5326 88.1774 13.7399 88.46 13.8857C88.7471 14.027 89.0866 14.0977 89.4785 14.0977C89.8704 14.0977 90.2077 14.027 90.4902 13.8857C90.7728 13.7399 90.9893 13.5326 91.1396 13.2637C91.2946 12.9902 91.3721 12.6621 91.3721 12.2793ZM92.4111 7.6377C92.4111 8.12077 92.2835 8.55599 92.0283 8.94336C91.7731 9.33073 91.4245 9.63607 90.9824 9.85938C90.5404 10.0827 90.0391 10.1943 89.4785 10.1943C88.9089 10.1943 88.4007 10.0827 87.9541 9.85938C87.512 9.63607 87.1657 9.33073 86.915 8.94336C86.6644 8.55599 86.5391 8.12077 86.5391 7.6377C86.5391 7.05892 86.6644 6.56673 86.915 6.16113C87.1702 5.75553 87.5189 5.44564 87.9609 5.23145C88.403 5.01725 88.9066 4.91016 89.4717 4.91016C90.0413 4.91016 90.5472 5.01725 90.9893 5.23145C91.4313 5.44564 91.7777 5.75553 92.0283 6.16113C92.2835 6.56673 92.4111 7.05892 92.4111 7.6377ZM91.1465 7.6582C91.1465 7.32552 91.0758 7.03158 90.9346 6.77637C90.7933 6.52116 90.5973 6.32064 90.3467 6.1748C90.096 6.02441 89.8044 5.94922 89.4717 5.94922C89.139 5.94922 88.8473 6.01986 88.5967 6.16113C88.3506 6.29785 88.1569 6.49382 88.0156 6.74902C87.8789 7.00423 87.8105 7.30729 87.8105 7.6582C87.8105 8 87.8789 8.2985 88.0156 8.55371C88.1569 8.80892 88.3529 9.00716 88.6035 9.14844C88.8542 9.28971 89.1458 9.36035 89.4785 9.36035C89.8112 9.36035 90.1006 9.28971 90.3467 9.14844C90.5973 9.00716 90.7933 8.80892 90.9346 8.55371C91.0758 8.2985 91.1465 8 91.1465 7.6582ZM100.676 5.04688V5.75781L96.5537 15H95.2207L99.3359 6.08594H93.9492V5.04688H100.676ZM108.394 12.3066C108.394 12.9128 108.252 13.4277 107.97 13.8516C107.692 14.2708 107.313 14.5898 106.835 14.8086C106.361 15.0273 105.826 15.1367 105.229 15.1367C104.632 15.1367 104.094 15.0273 103.615 14.8086C103.137 14.5898 102.758 14.2708 102.48 13.8516C102.202 13.4277 102.063 12.9128 102.063 12.3066C102.063 11.9102 102.139 11.5479 102.289 11.2197C102.444 10.887 102.66 10.5977 102.938 10.3516C103.221 10.1055 103.554 9.91634 103.937 9.78418C104.324 9.64746 104.75 9.5791 105.215 9.5791C105.826 9.5791 106.37 9.69759 106.849 9.93457C107.327 10.167 107.703 10.4883 107.977 10.8984C108.255 11.3086 108.394 11.778 108.394 12.3066ZM107.122 12.2793C107.122 11.9102 107.042 11.5843 106.883 11.3018C106.723 11.0146 106.5 10.7913 106.213 10.6318C105.926 10.4723 105.593 10.3926 105.215 10.3926C104.827 10.3926 104.493 10.4723 104.21 10.6318C103.932 10.7913 103.715 11.0146 103.561 11.3018C103.406 11.5843 103.328 11.9102 103.328 12.2793C103.328 12.6621 103.403 12.9902 103.554 13.2637C103.709 13.5326 103.927 13.7399 104.21 13.8857C104.497 14.027 104.837 14.0977 105.229 14.0977C105.62 14.0977 105.958 14.027 106.24 13.8857C106.523 13.7399 106.739 13.5326 106.89 13.2637C107.045 12.9902 107.122 12.6621 107.122 12.2793ZM108.161 7.6377C108.161 8.12077 108.034 8.55599 107.778 8.94336C107.523 9.33073 107.174 9.63607 106.732 9.85938C106.29 10.0827 105.789 10.1943 105.229 10.1943C104.659 10.1943 104.151 10.0827 103.704 9.85938C103.262 9.63607 102.916 9.33073 102.665 8.94336C102.414 8.55599 102.289 8.12077 102.289 7.6377C102.289 7.05892 102.414 6.56673 102.665 6.16113C102.92 5.75553 103.269 5.44564 103.711 5.23145C104.153 5.01725 104.657 4.91016 105.222 4.91016C105.791 4.91016 106.297 5.01725 106.739 5.23145C107.181 5.44564 107.528 5.75553 107.778 6.16113C108.034 6.56673 108.161 7.05892 108.161 7.6377ZM106.896 7.6582C106.896 7.32552 106.826 7.03158 106.685 6.77637C106.543 6.52116 106.347 6.32064 106.097 6.1748C105.846 6.02441 105.554 5.94922 105.222 5.94922C104.889 5.94922 104.597 6.01986 104.347 6.16113C104.101 6.29785 103.907 6.49382 103.766 6.74902C103.629 7.00423 103.561 7.30729 103.561 7.6582C103.561 8 103.629 8.2985 103.766 8.55371C103.907 8.80892 104.103 9.00716 104.354 9.14844C104.604 9.28971 104.896 9.36035 105.229 9.36035C105.561 9.36035 105.851 9.28971 106.097 9.14844C106.347 9.00716 106.543 8.80892 106.685 8.55371C106.826 8.2985 106.896 8 106.896 7.6582ZM112.762 10.249V11.2881H109.426V10.249H112.762ZM120.295 5.04688V5.75781L116.173 15H114.84L118.955 6.08594H113.568V5.04688H120.295ZM128.013 12.3066C128.013 12.9128 127.871 13.4277 127.589 13.8516C127.311 14.2708 126.933 14.5898 126.454 14.8086C125.98 15.0273 125.445 15.1367 124.848 15.1367C124.251 15.1367 123.713 15.0273 123.234 14.8086C122.756 14.5898 122.378 14.2708 122.1 13.8516C121.822 13.4277 121.683 12.9128 121.683 12.3066C121.683 11.9102 121.758 11.5479 121.908 11.2197C122.063 10.887 122.28 10.5977 122.558 10.3516C122.84 10.1055 123.173 9.91634 123.556 9.78418C123.943 9.64746 124.369 9.5791 124.834 9.5791C125.445 9.5791 125.989 9.69759 126.468 9.93457C126.946 10.167 127.322 10.4883 127.596 10.8984C127.874 11.3086 128.013 11.778 128.013 12.3066ZM126.741 12.2793C126.741 11.9102 126.661 11.5843 126.502 11.3018C126.342 11.0146 126.119 10.7913 125.832 10.6318C125.545 10.4723 125.212 10.3926 124.834 10.3926C124.447 10.3926 124.112 10.4723 123.829 10.6318C123.551 10.7913 123.335 11.0146 123.18 11.3018C123.025 11.5843 122.947 11.9102 122.947 12.2793C122.947 12.6621 123.022 12.9902 123.173 13.2637C123.328 13.5326 123.547 13.7399 123.829 13.8857C124.116 14.027 124.456 14.0977 124.848 14.0977C125.24 14.0977 125.577 14.027 125.859 13.8857C126.142 13.7399 126.358 13.5326 126.509 13.2637C126.664 12.9902 126.741 12.6621 126.741 12.2793ZM127.78 7.6377C127.78 8.12077 127.653 8.55599 127.397 8.94336C127.142 9.33073 126.794 9.63607 126.352 9.85938C125.91 10.0827 125.408 10.1943 124.848 10.1943C124.278 10.1943 123.77 10.0827 123.323 9.85938C122.881 9.63607 122.535 9.33073 122.284 8.94336C122.034 8.55599 121.908 8.12077 121.908 7.6377C121.908 7.05892 122.034 6.56673 122.284 6.16113C122.539 5.75553 122.888 5.44564 123.33 5.23145C123.772 5.01725 124.276 4.91016 124.841 4.91016C125.41 4.91016 125.916 5.01725 126.358 5.23145C126.8 5.44564 127.147 5.75553 127.397 6.16113C127.653 6.56673 127.78 7.05892 127.78 7.6377ZM126.516 7.6582C126.516 7.32552 126.445 7.03158 126.304 6.77637C126.162 6.52116 125.966 6.32064 125.716 6.1748C125.465 6.02441 125.174 5.94922 124.841 5.94922C124.508 5.94922 124.216 6.01986 123.966 6.16113C123.72 6.29785 123.526 6.49382 123.385 6.74902C123.248 7.00423 123.18 7.30729 123.18 7.6582C123.18 8 123.248 8.2985 123.385 8.55371C123.526 8.80892 123.722 9.00716 123.973 9.14844C124.223 9.28971 124.515 9.36035 124.848 9.36035C125.18 9.36035 125.47 9.28971 125.716 9.14844C125.966 9.00716 126.162 8.80892 126.304 8.55371C126.445 8.2985 126.516 8 126.516 7.6582ZM132.381 10.249V11.2881H129.045V10.249H132.381ZM139.914 5.04688V5.75781L135.792 15H134.459L138.574 6.08594H133.188V5.04688H139.914ZM147.632 12.3066C147.632 12.9128 147.491 13.4277 147.208 13.8516C146.93 14.2708 146.552 14.5898 146.073 14.8086C145.599 15.0273 145.064 15.1367 144.467 15.1367C143.87 15.1367 143.332 15.0273 142.854 14.8086C142.375 14.5898 141.997 14.2708 141.719 13.8516C141.441 13.4277 141.302 12.9128 141.302 12.3066C141.302 11.9102 141.377 11.5479 141.527 11.2197C141.682 10.887 141.899 10.5977 142.177 10.3516C142.459 10.1055 142.792 9.91634 143.175 9.78418C143.562 9.64746 143.988 9.5791 144.453 9.5791C145.064 9.5791 145.608 9.69759 146.087 9.93457C146.565 10.167 146.941 10.4883 147.215 10.8984C147.493 11.3086 147.632 11.778 147.632 12.3066ZM146.36 12.2793C146.36 11.9102 146.281 11.5843 146.121 11.3018C145.962 11.0146 145.738 10.7913 145.451 10.6318C145.164 10.4723 144.831 10.3926 144.453 10.3926C144.066 10.3926 143.731 10.4723 143.448 10.6318C143.17 10.7913 142.954 11.0146 142.799 11.3018C142.644 11.5843 142.566 11.9102 142.566 12.2793C142.566 12.6621 142.642 12.9902 142.792 13.2637C142.947 13.5326 143.166 13.7399 143.448 13.8857C143.735 14.027 144.075 14.0977 144.467 14.0977C144.859 14.0977 145.196 14.027 145.479 13.8857C145.761 13.7399 145.978 13.5326 146.128 13.2637C146.283 12.9902 146.36 12.6621 146.36 12.2793ZM147.399 7.6377C147.399 8.12077 147.272 8.55599 147.017 8.94336C146.761 9.33073 146.413 9.63607 145.971 9.85938C145.529 10.0827 145.027 10.1943 144.467 10.1943C143.897 10.1943 143.389 10.0827 142.942 9.85938C142.5 9.63607 142.154 9.33073 141.903 8.94336C141.653 8.55599 141.527 8.12077 141.527 7.6377C141.527 7.05892 141.653 6.56673 141.903 6.16113C142.159 5.75553 142.507 5.44564 142.949 5.23145C143.391 5.01725 143.895 4.91016 144.46 4.91016C145.03 4.91016 145.535 5.01725 145.978 5.23145C146.42 5.44564 146.766 5.75553 147.017 6.16113C147.272 6.56673 147.399 7.05892 147.399 7.6377ZM146.135 7.6582C146.135 7.32552 146.064 7.03158 145.923 6.77637C145.782 6.52116 145.586 6.32064 145.335 6.1748C145.084 6.02441 144.793 5.94922 144.46 5.94922C144.127 5.94922 143.836 6.01986 143.585 6.16113C143.339 6.29785 143.145 6.49382 143.004 6.74902C142.867 7.00423 142.799 7.30729 142.799 7.6582C142.799 8 142.867 8.2985 143.004 8.55371C143.145 8.80892 143.341 9.00716 143.592 9.14844C143.842 9.28971 144.134 9.36035 144.467 9.36035C144.799 9.36035 145.089 9.28971 145.335 9.14844C145.586 9.00716 145.782 8.80892 145.923 8.55371C146.064 8.2985 146.135 8 146.135 7.6582Z" fill="#FCF9FF"/>
</svg>
