<svg width="145" height="20" viewBox="0 0 145 20" fill="none" xmlns="http://www.w3.org/2000/svg">
<path d="M16.2 7.6358V14.0501C16.2 14.6468 15.9629 15.2191 15.541 15.6411C15.119 16.063 14.5467 16.3001 13.95 16.3001H4.05C3.45326 16.3001 2.88097 16.063 2.45901 15.6411C2.03705 15.2191 1.8 14.6468 1.8 14.0501V7.6358L8.7714 11.738C8.84066 11.7788 8.91959 11.8004 9 11.8004C9.0804 11.8004 9.15934 11.7788 9.2286 11.738L16.2 7.6358ZM13.95 4.6001C14.5036 4.60001 15.0379 4.80404 15.4505 5.17316C15.8631 5.54228 16.1252 6.05057 16.1865 6.6008L9 10.8281L1.8135 6.6008C1.87484 6.05057 2.13689 5.54228 2.54951 5.17316C2.96214 4.80404 3.49637 4.60001 4.05 4.6001H13.95Z" fill="#FCF9FF"/>
<path d="M31.626 13.5645V4.5H32.8975V15H31.7354L31.626 13.5645ZM26.6494 11.3838V11.2402C26.6494 10.6751 26.7178 10.1624 26.8545 9.70215C26.9958 9.2373 27.194 8.83854 27.4492 8.50586C27.709 8.17318 28.0166 7.91797 28.3721 7.74023C28.7321 7.55794 29.1331 7.4668 29.5752 7.4668C30.04 7.4668 30.4456 7.54883 30.792 7.71289C31.1429 7.8724 31.4391 8.1071 31.6807 8.41699C31.9268 8.72233 32.1204 9.09147 32.2617 9.52441C32.403 9.95736 32.501 10.4473 32.5557 10.9941V11.623C32.5055 12.1654 32.4076 12.653 32.2617 13.0859C32.1204 13.5189 31.9268 13.888 31.6807 14.1934C31.4391 14.4987 31.1429 14.7334 30.792 14.8975C30.4411 15.057 30.0309 15.1367 29.5615 15.1367C29.1286 15.1367 28.7321 15.0433 28.3721 14.8564C28.0166 14.6696 27.709 14.4076 27.4492 14.0703C27.194 13.7331 26.9958 13.3366 26.8545 12.8809C26.7178 12.4206 26.6494 11.9215 26.6494 11.3838ZM27.9209 11.2402V11.3838C27.9209 11.7529 27.9574 12.0993 28.0303 12.4229C28.1077 12.7464 28.2262 13.0312 28.3857 13.2773C28.5452 13.5234 28.748 13.7171 28.9941 13.8584C29.2402 13.9951 29.5342 14.0635 29.876 14.0635C30.2952 14.0635 30.6393 13.9746 30.9082 13.7969C31.1816 13.6191 31.4004 13.3844 31.5645 13.0928C31.7285 12.8011 31.8561 12.4844 31.9473 12.1426V10.4951C31.8926 10.2445 31.8128 10.0029 31.708 9.77051C31.6077 9.53353 31.4756 9.32389 31.3115 9.1416C31.152 8.95475 30.9538 8.80664 30.7168 8.69727C30.4844 8.58789 30.2087 8.5332 29.8896 8.5332C29.5433 8.5332 29.2448 8.60612 28.9941 8.75195C28.748 8.89323 28.5452 9.08919 28.3857 9.33984C28.2262 9.58594 28.1077 9.87305 28.0303 10.2012C27.9574 10.5247 27.9209 10.8711 27.9209 11.2402ZM37.9355 15.1367C37.4206 15.1367 36.9535 15.0501 36.5342 14.877C36.1195 14.6992 35.7617 14.4508 35.4609 14.1318C35.1647 13.8128 34.9368 13.4346 34.7773 12.9971C34.6178 12.5596 34.5381 12.0811 34.5381 11.5615V11.2744C34.5381 10.6729 34.627 10.1374 34.8047 9.66797C34.9824 9.19401 35.224 8.79297 35.5293 8.46484C35.8346 8.13672 36.181 7.88835 36.5684 7.71973C36.9557 7.55111 37.3568 7.4668 37.7715 7.4668C38.3001 7.4668 38.7559 7.55794 39.1387 7.74023C39.526 7.92253 39.8428 8.17773 40.0889 8.50586C40.335 8.82943 40.5173 9.21224 40.6357 9.6543C40.7542 10.0918 40.8135 10.5703 40.8135 11.0898V11.6572H35.29V10.625H39.5488V10.5293C39.5306 10.2012 39.4622 9.88216 39.3438 9.57227C39.2298 9.26237 39.0475 9.00716 38.7969 8.80664C38.5462 8.60612 38.2044 8.50586 37.7715 8.50586C37.4844 8.50586 37.2201 8.56738 36.9785 8.69043C36.737 8.80892 36.5296 8.98665 36.3564 9.22363C36.1833 9.46061 36.0488 9.75 35.9531 10.0918C35.8574 10.4336 35.8096 10.8278 35.8096 11.2744V11.5615C35.8096 11.9124 35.8574 12.2428 35.9531 12.5527C36.0534 12.8581 36.1969 13.127 36.3838 13.3594C36.5752 13.5918 36.8053 13.7741 37.0742 13.9062C37.3477 14.0384 37.6576 14.1045 38.0039 14.1045C38.4505 14.1045 38.8288 14.0133 39.1387 13.8311C39.4486 13.6488 39.7197 13.4049 39.9521 13.0996L40.7178 13.708C40.5583 13.9495 40.3555 14.1797 40.1094 14.3984C39.8633 14.6172 39.5602 14.7949 39.2002 14.9316C38.8447 15.0684 38.4232 15.1367 37.9355 15.1367ZM43.6641 4.5V15H42.3926V4.5H43.6641ZM47.0684 7.60352V15H45.7969V7.60352H47.0684ZM45.7012 5.6416C45.7012 5.43652 45.7627 5.26335 45.8857 5.12207C46.0133 4.98079 46.2002 4.91016 46.4463 4.91016C46.6878 4.91016 46.8724 4.98079 47 5.12207C47.1322 5.26335 47.1982 5.43652 47.1982 5.6416C47.1982 5.83757 47.1322 6.00618 47 6.14746C46.8724 6.28418 46.6878 6.35254 46.4463 6.35254C46.2002 6.35254 46.0133 6.28418 45.8857 6.14746C45.7627 6.00618 45.7012 5.83757 45.7012 5.6416ZM51.3477 13.8584L53.3711 7.60352H54.6631L52.0039 15H51.1562L51.3477 13.8584ZM49.6592 7.60352L51.7441 13.8926L51.8877 15H51.04L48.3604 7.60352H49.6592ZM58.8535 15.1367C58.3385 15.1367 57.8714 15.0501 57.4521 14.877C57.0374 14.6992 56.6797 14.4508 56.3789 14.1318C56.0827 13.8128 55.8548 13.4346 55.6953 12.9971C55.5358 12.5596 55.4561 12.0811 55.4561 11.5615V11.2744C55.4561 10.6729 55.5449 10.1374 55.7227 9.66797C55.9004 9.19401 56.1419 8.79297 56.4473 8.46484C56.7526 8.13672 57.099 7.88835 57.4863 7.71973C57.8737 7.55111 58.2747 7.4668 58.6895 7.4668C59.2181 7.4668 59.6738 7.55794 60.0566 7.74023C60.444 7.92253 60.7607 8.17773 61.0068 8.50586C61.2529 8.82943 61.4352 9.21224 61.5537 9.6543C61.6722 10.0918 61.7314 10.5703 61.7314 11.0898V11.6572H56.208V10.625H60.4668V10.5293C60.4486 10.2012 60.3802 9.88216 60.2617 9.57227C60.1478 9.26237 59.9655 9.00716 59.7148 8.80664C59.4642 8.60612 59.1224 8.50586 58.6895 8.50586C58.4023 8.50586 58.138 8.56738 57.8965 8.69043C57.6549 8.80892 57.4476 8.98665 57.2744 9.22363C57.1012 9.46061 56.9668 9.75 56.8711 10.0918C56.7754 10.4336 56.7275 10.8278 56.7275 11.2744V11.5615C56.7275 11.9124 56.7754 12.2428 56.8711 12.5527C56.9714 12.8581 57.1149 13.127 57.3018 13.3594C57.4932 13.5918 57.7233 13.7741 57.9922 13.9062C58.2656 14.0384 58.5755 14.1045 58.9219 14.1045C59.3685 14.1045 59.7467 14.0133 60.0566 13.8311C60.3665 13.6488 60.6377 13.4049 60.8701 13.0996L61.6357 13.708C61.4762 13.9495 61.2734 14.1797 61.0273 14.3984C60.7812 14.6172 60.4782 14.7949 60.1182 14.9316C59.7627 15.0684 59.3411 15.1367 58.8535 15.1367ZM64.4727 8.76562V15H63.208V7.60352H64.4385L64.4727 8.76562ZM66.7832 7.5625L66.7764 8.73828C66.6715 8.71549 66.5713 8.70182 66.4756 8.69727C66.3844 8.68815 66.2796 8.68359 66.1611 8.68359C65.8695 8.68359 65.612 8.72917 65.3887 8.82031C65.1654 8.91146 64.9762 9.03906 64.8213 9.20312C64.6663 9.36719 64.5433 9.56315 64.4521 9.79102C64.3656 10.0143 64.3086 10.2604 64.2812 10.5293L63.9258 10.7344C63.9258 10.2878 63.9691 9.86849 64.0557 9.47656C64.1468 9.08464 64.2858 8.73828 64.4727 8.4375C64.6595 8.13216 64.8965 7.89518 65.1836 7.72656C65.4753 7.55339 65.8216 7.4668 66.2227 7.4668C66.3138 7.4668 66.4186 7.47819 66.5371 7.50098C66.6556 7.51921 66.7376 7.53971 66.7832 7.5625ZM70.1533 14.2344L72.2109 7.60352H73.5645L70.5977 16.1416C70.5293 16.3239 70.4382 16.5199 70.3242 16.7295C70.2148 16.9437 70.0736 17.1465 69.9004 17.3379C69.7272 17.5293 69.5176 17.6842 69.2715 17.8027C69.0299 17.9258 68.7406 17.9873 68.4033 17.9873C68.3031 17.9873 68.1755 17.9736 68.0205 17.9463C67.8656 17.9189 67.7562 17.8962 67.6924 17.8779L67.6855 16.8525C67.722 16.8571 67.779 16.8617 67.8564 16.8662C67.9385 16.8753 67.9954 16.8799 68.0273 16.8799C68.3145 16.8799 68.5583 16.8411 68.7588 16.7637C68.9593 16.6908 69.1279 16.5654 69.2646 16.3877C69.4059 16.2145 69.5267 15.9753 69.627 15.6699L70.1533 14.2344ZM68.6426 7.60352L70.5635 13.3457L70.8916 14.6787L69.9824 15.1436L67.2617 7.60352H68.6426ZM85.6094 11.5615C85.5911 11.9808 85.5273 12.4023 85.418 12.8262C85.3086 13.2454 85.1445 13.6305 84.9258 13.9814C84.707 14.3324 84.4222 14.6149 84.0713 14.8291C83.7249 15.0387 83.3057 15.1436 82.8135 15.1436C82.499 15.1436 82.2233 15.0889 81.9863 14.9795C81.7539 14.8656 81.5625 14.7038 81.4121 14.4941C81.2663 14.2845 81.1637 14.0316 81.1045 13.7354C81.0498 13.4391 81.0407 13.1087 81.0771 12.7441L81.4258 8.95703H82.4307L82.082 12.7441C82.0547 13.0768 82.0615 13.348 82.1025 13.5576C82.1481 13.7673 82.2165 13.929 82.3076 14.043C82.3988 14.1523 82.5013 14.2275 82.6152 14.2686C82.7337 14.3096 82.8477 14.3301 82.957 14.3301C83.2305 14.3301 83.4743 14.2594 83.6885 14.1182C83.9027 13.9723 84.0827 13.7741 84.2285 13.5234C84.3789 13.2682 84.4951 12.9743 84.5771 12.6416C84.6592 12.3044 84.7093 11.9443 84.7275 11.5615C84.7594 10.8825 84.7275 10.2581 84.6318 9.68848C84.5407 9.11882 84.3835 8.61296 84.1602 8.1709C83.9414 7.72884 83.6543 7.35514 83.2988 7.0498C82.9434 6.74447 82.5195 6.51204 82.0273 6.35254C81.5352 6.19303 80.9723 6.11328 80.3389 6.11328C79.7646 6.11328 79.2337 6.20215 78.7461 6.37988C78.263 6.55306 77.8278 6.80371 77.4404 7.13184C77.0576 7.45996 76.7272 7.85417 76.4492 8.31445C76.1758 8.77474 75.9593 9.29427 75.7998 9.87305C75.6449 10.4473 75.5537 11.0671 75.5264 11.7324C75.4945 12.416 75.5309 13.0449 75.6357 13.6191C75.7406 14.1888 75.9092 14.6969 76.1416 15.1436C76.3786 15.5947 76.6771 15.9753 77.0371 16.2852C77.3971 16.5996 77.8141 16.8366 78.2881 16.9961C78.762 17.1602 79.2907 17.2422 79.874 17.2422C80.2751 17.2422 80.6807 17.1943 81.0908 17.0986C81.5055 17.0029 81.8519 16.873 82.1299 16.709L82.3896 17.4883C82.0706 17.6934 81.6719 17.846 81.1934 17.9463C80.7194 18.0465 80.2705 18.0967 79.8467 18.0967C79.154 18.0967 78.5205 18.001 77.9463 17.8096C77.3766 17.6227 76.8708 17.347 76.4287 16.9824C75.9912 16.6224 75.6266 16.1826 75.335 15.6631C75.0433 15.1481 74.8291 14.5602 74.6924 13.8994C74.5557 13.2386 74.5033 12.5163 74.5352 11.7324C74.5671 10.985 74.6787 10.2809 74.8701 9.62012C75.0661 8.95931 75.3327 8.36003 75.6699 7.82227C76.0072 7.28451 76.4082 6.82194 76.873 6.43457C77.3424 6.04264 77.8688 5.74186 78.4521 5.53223C79.04 5.32259 79.6781 5.21777 80.3662 5.21777C81.068 5.21777 81.7038 5.31348 82.2734 5.50488C82.8431 5.69629 83.3421 5.97201 83.7705 6.33203C84.2035 6.69206 84.5612 7.13184 84.8438 7.65137C85.1263 8.1709 85.3314 8.75879 85.459 9.41504C85.5911 10.0713 85.6413 10.7868 85.6094 11.5615ZM78.5889 12.1426C78.557 12.4616 78.557 12.7464 78.5889 12.9971C78.6208 13.2477 78.6823 13.4596 78.7734 13.6328C78.8646 13.806 78.9831 13.9382 79.1289 14.0293C79.2793 14.1159 79.4548 14.1592 79.6553 14.1592C79.7874 14.1592 79.9264 14.1273 80.0723 14.0635C80.2181 13.9951 80.3617 13.8903 80.5029 13.749C80.6442 13.6077 80.7764 13.4232 80.8994 13.1953C81.0225 12.9674 81.125 12.694 81.207 12.375L81.6582 12.8672C81.5534 13.2409 81.4167 13.569 81.248 13.8516C81.084 14.1341 80.8994 14.3711 80.6943 14.5625C80.4893 14.7539 80.2705 14.8997 80.0381 15C79.8102 15.0957 79.5778 15.1436 79.3408 15.1436C79.0081 15.1436 78.7165 15.0729 78.4658 14.9316C78.2152 14.7858 78.0124 14.5807 77.8574 14.3164C77.7025 14.0521 77.5931 13.7376 77.5293 13.373C77.4701 13.0039 77.4609 12.5938 77.502 12.1426C77.543 11.6641 77.6273 11.222 77.7549 10.8164C77.8825 10.4108 78.0397 10.0485 78.2266 9.72949C78.418 9.41048 78.6322 9.13932 78.8691 8.91602C79.1107 8.69271 79.3659 8.52409 79.6348 8.41016C79.9036 8.29167 80.1794 8.23242 80.4619 8.23242C80.9541 8.23242 81.3415 8.30534 81.624 8.45117C81.9066 8.59245 82.1755 8.76107 82.4307 8.95703L81.8496 9.63379C81.7174 9.50618 81.5443 9.3877 81.3301 9.27832C81.1159 9.16895 80.863 9.11426 80.5713 9.11426C80.3206 9.11426 80.0859 9.17806 79.8672 9.30566C79.6484 9.43327 79.4502 9.62467 79.2725 9.87988C79.0993 10.1351 78.9535 10.4518 78.835 10.8301C78.7165 11.2038 78.6344 11.6413 78.5889 12.1426ZM88.6582 4.5V15H87.3867V4.5H88.6582ZM92.0625 7.60352V15H90.791V7.60352H92.0625ZM90.6953 5.6416C90.6953 5.43652 90.7568 5.26335 90.8799 5.12207C91.0075 4.98079 91.1943 4.91016 91.4404 4.91016C91.682 4.91016 91.8665 4.98079 91.9941 5.12207C92.1263 5.26335 92.1924 5.43652 92.1924 5.6416C92.1924 5.83757 92.1263 6.00618 91.9941 6.14746C91.8665 6.28418 91.682 6.35254 91.4404 6.35254C91.1943 6.35254 91.0075 6.28418 90.8799 6.14746C90.7568 6.00618 90.6953 5.83757 90.6953 5.6416ZM95.3574 9.18262V15H94.0928V7.60352H95.2891L95.3574 9.18262ZM95.0566 11.0215L94.5303 11.001C94.5348 10.4951 94.61 10.028 94.7559 9.59961C94.9017 9.16667 95.1068 8.79069 95.3711 8.47168C95.6354 8.15267 95.9499 7.90658 96.3145 7.7334C96.6836 7.55566 97.0915 7.4668 97.5381 7.4668C97.9027 7.4668 98.2308 7.51693 98.5225 7.61719C98.8141 7.71289 99.0625 7.86784 99.2676 8.08203C99.4772 8.29622 99.6367 8.57422 99.7461 8.91602C99.8555 9.25326 99.9102 9.66569 99.9102 10.1533V15H98.6387V10.1396C98.6387 9.75228 98.5817 9.44238 98.4678 9.20996C98.3538 8.97298 98.1875 8.80208 97.9688 8.69727C97.75 8.58789 97.4811 8.5332 97.1621 8.5332C96.8477 8.5332 96.5605 8.59928 96.3008 8.73145C96.0456 8.86361 95.8245 9.0459 95.6377 9.27832C95.4554 9.51074 95.3118 9.77734 95.207 10.0781C95.1068 10.3743 95.0566 10.6888 95.0566 11.0215ZM104.928 7.60352V8.57422H100.929V7.60352H104.928ZM102.282 5.80566H103.547V13.168C103.547 13.4186 103.586 13.6077 103.663 13.7354C103.741 13.863 103.841 13.9473 103.964 13.9883C104.087 14.0293 104.219 14.0498 104.36 14.0498C104.465 14.0498 104.575 14.0407 104.688 14.0225C104.807 13.9997 104.896 13.9814 104.955 13.9678L104.962 15C104.862 15.0319 104.729 15.0615 104.565 15.0889C104.406 15.1208 104.212 15.1367 103.984 15.1367C103.674 15.1367 103.39 15.0752 103.13 14.9521C102.87 14.8291 102.663 14.624 102.508 14.3369C102.357 14.0452 102.282 13.6533 102.282 13.1611V5.80566ZM110.937 13.291V7.60352H112.208V15H110.998L110.937 13.291ZM111.176 11.7324L111.702 11.7188C111.702 12.2109 111.65 12.6667 111.545 13.0859C111.445 13.5007 111.281 13.8607 111.053 14.166C110.825 14.4714 110.526 14.7106 110.157 14.8838C109.788 15.0524 109.339 15.1367 108.811 15.1367C108.451 15.1367 108.12 15.0843 107.819 14.9795C107.523 14.8747 107.268 14.7129 107.054 14.4941C106.84 14.2754 106.673 13.9906 106.555 13.6396C106.441 13.2887 106.384 12.8672 106.384 12.375V7.60352H107.648V12.3887C107.648 12.7214 107.685 12.9971 107.758 13.2158C107.835 13.43 107.938 13.6009 108.065 13.7285C108.198 13.8516 108.343 13.9382 108.503 13.9883C108.667 14.0384 108.836 14.0635 109.009 14.0635C109.547 14.0635 109.973 13.9609 110.287 13.7559C110.602 13.5462 110.827 13.266 110.964 12.915C111.105 12.5596 111.176 12.1654 111.176 11.7324ZM114.156 14.3301C114.156 14.1159 114.222 13.9359 114.354 13.79C114.491 13.6396 114.687 13.5645 114.942 13.5645C115.198 13.5645 115.391 13.6396 115.523 13.79C115.66 13.9359 115.729 14.1159 115.729 14.3301C115.729 14.5397 115.66 14.7174 115.523 14.8633C115.391 15.0091 115.198 15.082 114.942 15.082C114.687 15.082 114.491 15.0091 114.354 14.8633C114.222 14.7174 114.156 14.5397 114.156 14.3301ZM120.787 14.0977C121.088 14.0977 121.366 14.0361 121.621 13.9131C121.876 13.79 122.086 13.6214 122.25 13.4072C122.414 13.1885 122.507 12.9401 122.53 12.6621H123.733C123.711 13.0996 123.562 13.5075 123.289 13.8857C123.02 14.2594 122.667 14.5625 122.229 14.7949C121.792 15.0228 121.311 15.1367 120.787 15.1367C120.231 15.1367 119.746 15.0387 119.331 14.8428C118.921 14.6468 118.579 14.3779 118.306 14.0361C118.037 13.6943 117.834 13.3024 117.697 12.8604C117.565 12.4137 117.499 11.9421 117.499 11.4453V11.1582C117.499 10.6615 117.565 10.1921 117.697 9.75C117.834 9.30339 118.037 8.90918 118.306 8.56738C118.579 8.22559 118.921 7.95671 119.331 7.76074C119.746 7.56478 120.231 7.4668 120.787 7.4668C121.366 7.4668 121.872 7.58529 122.305 7.82227C122.738 8.05469 123.077 8.3737 123.323 8.7793C123.574 9.18034 123.711 9.63607 123.733 10.1465H122.53C122.507 9.84115 122.421 9.56543 122.271 9.31934C122.125 9.07324 121.924 8.87728 121.669 8.73145C121.418 8.58105 121.124 8.50586 120.787 8.50586C120.4 8.50586 120.074 8.58333 119.81 8.73828C119.55 8.88867 119.342 9.09375 119.188 9.35352C119.037 9.60872 118.928 9.89355 118.859 10.208C118.796 10.5179 118.764 10.8346 118.764 11.1582V11.4453C118.764 11.7689 118.796 12.0879 118.859 12.4023C118.923 12.7168 119.03 13.0016 119.181 13.2568C119.336 13.512 119.543 13.7171 119.803 13.8721C120.067 14.0225 120.395 14.0977 120.787 14.0977ZM124.82 11.3838V11.2266C124.82 10.6934 124.898 10.1989 125.053 9.74316C125.208 9.28288 125.431 8.88411 125.723 8.54688C126.014 8.20508 126.368 7.94076 126.782 7.75391C127.197 7.5625 127.662 7.4668 128.177 7.4668C128.696 7.4668 129.163 7.5625 129.578 7.75391C129.997 7.94076 130.353 8.20508 130.645 8.54688C130.941 8.88411 131.166 9.28288 131.321 9.74316C131.476 10.1989 131.554 10.6934 131.554 11.2266V11.3838C131.554 11.917 131.476 12.4115 131.321 12.8672C131.166 13.3229 130.941 13.7217 130.645 14.0635C130.353 14.4007 130 14.665 129.585 14.8564C129.175 15.0433 128.71 15.1367 128.19 15.1367C127.671 15.1367 127.204 15.0433 126.789 14.8564C126.374 14.665 126.019 14.4007 125.723 14.0635C125.431 13.7217 125.208 13.3229 125.053 12.8672C124.898 12.4115 124.82 11.917 124.82 11.3838ZM126.085 11.2266V11.3838C126.085 11.7529 126.128 12.1016 126.215 12.4297C126.301 12.7533 126.431 13.0404 126.604 13.291C126.782 13.5417 127.003 13.7399 127.268 13.8857C127.532 14.027 127.84 14.0977 128.19 14.0977C128.537 14.0977 128.84 14.027 129.1 13.8857C129.364 13.7399 129.583 13.5417 129.756 13.291C129.929 13.0404 130.059 12.7533 130.146 12.4297C130.237 12.1016 130.282 11.7529 130.282 11.3838V11.2266C130.282 10.862 130.237 10.5179 130.146 10.1943C130.059 9.86621 129.927 9.57682 129.749 9.32617C129.576 9.07096 129.357 8.87044 129.093 8.72461C128.833 8.57878 128.528 8.50586 128.177 8.50586C127.83 8.50586 127.525 8.57878 127.261 8.72461C127.001 8.87044 126.782 9.07096 126.604 9.32617C126.431 9.57682 126.301 9.86621 126.215 10.1943C126.128 10.5179 126.085 10.862 126.085 11.2266ZM134.397 9.07324V15H133.126V7.60352H134.329L134.397 9.07324ZM134.138 11.0215L133.55 11.001C133.554 10.4951 133.62 10.028 133.748 9.59961C133.876 9.16667 134.065 8.79069 134.315 8.47168C134.566 8.15267 134.878 7.90658 135.252 7.7334C135.626 7.55566 136.059 7.4668 136.551 7.4668C136.897 7.4668 137.216 7.51693 137.508 7.61719C137.799 7.71289 138.052 7.86556 138.267 8.0752C138.481 8.28483 138.647 8.55371 138.766 8.88184C138.884 9.20996 138.943 9.60645 138.943 10.0713V15H137.679V10.1328C137.679 9.74544 137.613 9.43555 137.48 9.20312C137.353 8.9707 137.171 8.80208 136.934 8.69727C136.697 8.58789 136.419 8.5332 136.1 8.5332C135.726 8.5332 135.414 8.59928 135.163 8.73145C134.912 8.86361 134.712 9.0459 134.562 9.27832C134.411 9.51074 134.302 9.77734 134.233 10.0781C134.17 10.3743 134.138 10.6888 134.138 11.0215ZM138.93 10.3242L138.082 10.584C138.087 10.1784 138.153 9.78874 138.28 9.41504C138.412 9.04134 138.602 8.70866 138.848 8.41699C139.098 8.12533 139.406 7.89518 139.771 7.72656C140.135 7.55339 140.552 7.4668 141.021 7.4668C141.418 7.4668 141.769 7.51921 142.074 7.62402C142.384 7.72884 142.644 7.89062 142.854 8.10938C143.068 8.32357 143.229 8.59928 143.339 8.93652C143.448 9.27376 143.503 9.6748 143.503 10.1396V15H142.231V10.126C142.231 9.71126 142.165 9.38997 142.033 9.16211C141.906 8.92969 141.723 8.7679 141.486 8.67676C141.254 8.58105 140.976 8.5332 140.652 8.5332C140.374 8.5332 140.128 8.58105 139.914 8.67676C139.7 8.77246 139.52 8.90462 139.374 9.07324C139.228 9.2373 139.117 9.42643 139.039 9.64062C138.966 9.85482 138.93 10.0827 138.93 10.3242Z" fill="#FCF9FF"/>
</svg>
