<svg width="146" height="20" viewBox="0 0 146 20" fill="none" xmlns="http://www.w3.org/2000/svg">
<path d="M17.7323 4.70269C17.106 4.98019 16.4333 5.16769 15.726 5.25244C16.4558 4.81578 17.0017 4.12854 17.262 3.31894C16.5764 3.72618 15.826 4.01283 15.0435 4.16644C14.5173 3.60458 13.8203 3.23218 13.0607 3.10704C12.3012 2.9819 11.5216 3.11103 10.8429 3.47438C10.1643 3.83772 9.62458 4.41496 9.30762 5.11646C8.99065 5.81797 8.91415 6.6045 9.09 7.35394C7.70077 7.28418 6.34172 6.9231 5.10107 6.29411C3.86042 5.66513 2.76588 4.78231 1.8885 3.70294C1.5885 4.22044 1.416 4.82044 1.416 5.45944C1.41567 6.03468 1.55733 6.60112 1.82841 7.10848C2.09949 7.61585 2.49162 8.04846 2.97 8.36794C2.41521 8.35028 1.87266 8.20037 1.3875 7.93069V7.97569C1.38745 8.78249 1.66653 9.56447 2.17739 10.1889C2.68825 10.8134 3.39943 11.2419 4.19025 11.4017C3.67559 11.541 3.136 11.5615 2.61225 11.4617C2.83537 12.1559 3.27 12.763 3.85528 13.1979C4.44056 13.6328 5.14719 13.8738 5.87625 13.8872C4.63863 14.8587 3.11017 15.3858 1.53675 15.3834C1.25804 15.3835 0.979558 15.3672 0.702751 15.3347C2.29986 16.3616 4.15901 16.9066 6.05775 16.9044C12.4853 16.9044 15.999 11.5809 15.999 6.96394C15.999 6.81394 15.9953 6.66244 15.9885 6.51244C16.672 6.01817 17.2619 5.40611 17.7308 4.70494L17.7323 4.70269Z" fill="#FCF9FF"/>
<g clip-path="url(#clip0_2_280)">
<path d="M50.9976 6.99872C49.345 6.99872 47.9964 8.34738 47.9964 10C47.9964 11.6526 49.345 13.0013 50.9976 13.0013C52.6502 13.0013 53.9988 11.6526 53.9988 10C53.9988 8.34738 52.6502 6.99872 50.9976 6.99872ZM59.999 10C59.999 8.75716 60.0103 7.52558 59.9405 6.28499C59.8707 4.84402 59.5419 3.56515 58.4883 2.51144C57.4323 1.45548 56.1557 1.12901 54.7148 1.05921C53.472 0.989412 52.2404 1.00067 50.9998 1.00067C49.757 1.00067 48.5255 0.989412 47.2849 1.05921C45.8439 1.12901 44.5651 1.45773 43.5114 2.51144C42.4555 3.5674 42.129 4.84402 42.0592 6.28499C41.9894 7.52783 42.0007 8.75941 42.0007 10C42.0007 11.2406 41.9894 12.4744 42.0592 13.715C42.129 15.156 42.4577 16.4348 43.5114 17.4886C44.5674 18.5445 45.8439 18.871 47.2849 18.9408C48.5277 19.0106 49.7593 18.9993 50.9998 18.9993C52.2426 18.9993 53.4742 19.0106 54.7148 18.9408C56.1557 18.871 57.4346 18.5423 58.4883 17.4886C59.5442 16.4326 59.8707 15.156 59.9405 13.715C60.0125 12.4744 59.999 11.2428 59.999 10ZM50.9976 14.6179C48.4422 14.6179 46.3798 12.5555 46.3798 10C46.3798 7.44452 48.4422 5.38213 50.9976 5.38213C53.553 5.38213 55.6154 7.44452 55.6154 10C55.6154 12.5555 53.553 14.6179 50.9976 14.6179ZM55.8045 6.27148C55.2078 6.27148 54.726 5.78966 54.726 5.193C54.726 4.59635 55.2078 4.11452 55.8045 4.11452C56.4011 4.11452 56.8829 4.59635 56.8829 5.193C56.8831 5.33468 56.8554 5.475 56.8012 5.60593C56.7471 5.73686 56.6676 5.85582 56.5675 5.956C56.4673 6.05618 56.3483 6.13561 56.2174 6.18975C56.0865 6.24389 55.9462 6.27166 55.8045 6.27148Z" fill="#FCF9FF"/>
</g>
<g clip-path="url(#clip1_2_280)">
<path fill-rule="evenodd" clip-rule="evenodd" d="M84 10.0503C84 14.5248 87.2498 18.2455 91.5 19V12.4998H89.25V10H91.5V7.99975C91.5 5.74975 92.9497 4.50025 95.0002 4.50025C95.6497 4.50025 96.3503 4.6 96.9998 4.69975V7H95.85C94.7498 7 94.5 7.54975 94.5 8.25025V10H96.9L96.5002 12.4998H94.5V19C98.7502 18.2455 102 14.5255 102 10.0503C102 5.0725 97.95 1 93 1C88.05 1 84 5.0725 84 10.0503Z" fill="#FCF9FF"/>
</g>
<g clip-path="url(#clip2_2_280)">
<path d="M145.583 5.4224C145.47 5.01843 145.249 4.65269 144.945 4.36407C144.632 4.06657 144.248 3.85376 143.83 3.74573C142.265 3.33323 135.995 3.33323 135.995 3.33323C133.381 3.30349 130.768 3.4343 128.17 3.7249C127.752 3.84091 127.369 4.05847 127.055 4.35823C126.747 4.6549 126.523 5.02073 126.407 5.42157C126.126 6.93135 125.99 8.46435 126 9.9999C125.99 11.5341 126.126 13.0666 126.407 14.5782C126.521 14.9774 126.743 15.3416 127.052 15.6357C127.362 15.9299 127.747 16.1424 128.17 16.2549C129.756 16.6666 135.995 16.6666 135.995 16.6666C138.612 16.6963 141.229 16.5655 143.83 16.2749C144.248 16.1669 144.632 15.9541 144.945 15.6566C145.249 15.368 145.47 15.0022 145.582 14.5982C145.87 13.089 146.01 11.5554 146 10.0191C146.022 8.47624 145.882 6.93537 145.583 5.42157V5.4224ZM134.002 12.8532V7.1474L139.218 10.0007L134.002 12.8532Z" fill="#FCF9FF"/>
</g>
<defs>
<clipPath id="clip0_2_280">
<rect width="18" height="18" fill="white" transform="translate(42 1)"/>
</clipPath>
<clipPath id="clip1_2_280">
<rect width="18" height="18" fill="white" transform="translate(84 1)"/>
</clipPath>
<clipPath id="clip2_2_280">
<rect width="20" height="20" fill="white" transform="translate(126)"/>
</clipPath>
</defs>
</svg>
