<svg width="18" height="18" viewBox="0 0 18 18" fill="none" xmlns="http://www.w3.org/2000/svg">
<g id="fluent:mail-20-filled">
<path id="Vector" d="M16.2 6.6358V13.0501C16.2 13.6468 15.9629 14.2191 15.541 14.6411C15.119 15.063 14.5467 15.3001 13.95 15.3001H4.05C3.45326 15.3001 2.88097 15.063 2.45901 14.6411C2.03705 14.2191 1.8 13.6468 1.8 13.0501V6.6358L8.7714 10.738C8.84066 10.7788 8.91959 10.8004 9 10.8004C9.0804 10.8004 9.15934 10.7788 9.2286 10.738L16.2 6.6358ZM13.95 3.6001C14.5036 3.60001 15.0379 3.80404 15.4505 4.17316C15.8631 4.54228 16.1252 5.05057 16.1865 5.6008L9 9.8281L1.8135 5.6008C1.87484 5.05057 2.13689 4.54228 2.54951 4.17316C2.96214 3.80404 3.49637 3.60001 4.05 3.6001H13.95Z" fill="#FCF9FF"/>
</g>
</svg>
